<svg width="35" height="35" viewBox="0 0 35 35" fill="none" xmlns="http://www.w3.org/2000/svg">
<g clip-path="url(#clip0_123_4)">
<path d="M2.07208 35H32.9207C34.0694 35 35 34.0732 35 32.9292V32.0459C35 31.8576 34.9346 31.6766 34.8182 31.5318L33.2624 29.6276C33.0079 29.3235 32.877 28.9397 32.877 28.5415V26.7459V25.5947V22.2785V13.0904C32.877 11.4034 31.5102 10.0422 29.8162 10.0422H29.5908H27.3442L28.0276 11.2731C28.3403 11.8451 28.4202 12.4895 28.2966 13.0832H29.598H29.8234C29.8307 13.0832 29.8307 13.0904 29.8307 13.0904V25.6091V26.4128V26.6228V26.7604V28.7225H14.3228L16.9184 27.3034C17.6672 26.9776 18.9105 26.4201 20.0956 25.7395C20.8808 25.3847 21.6878 24.9503 22.2549 24.4652C24.167 22.8216 22.7929 21.6124 22.7929 21.6124C23.4763 20.0992 22.2113 19.3679 22.2113 19.3679C22.6548 17.7243 21.1352 17.3768 21.1352 17.3768C21.1352 17.3768 21.2152 16.1966 20.1319 15.9359C19.2158 15.7115 17.9362 16.5007 17.2019 17.0365L15.4134 15.125L16.9547 14.2851L16.613 13.6696C18.5833 12.9746 22.0004 12.0985 25.1703 12.9311C25.3957 13.2859 25.8756 13.3945 26.2391 13.1411C26.5517 12.9166 26.6244 12.4822 26.4354 12.1419L24.327 8.3262C24.9958 7.55147 25.1485 6.42196 24.6251 5.4807C24.1016 4.53945 23.0619 4.06158 22.0513 4.20639L19.972 0.419632C19.7829 0.0865717 19.3758 -0.0944394 19.0195 0.0503695C18.6124 0.2169 18.4452 0.680288 18.6269 1.05679C17.6309 4.17018 15.0571 6.56677 13.4067 7.85557L13.065 7.24013L8.92813 9.50639C8.10656 9.9553 7.80848 10.9834 8.25924 11.8016L8.62277 12.4605L8.172 12.7067C7.89572 12.8587 7.79393 13.199 7.94661 13.4742L8.97175 15.335C9.12443 15.6101 9.46614 15.7115 9.74242 15.5594L10.1932 15.3132L10.5058 15.8852C10.9566 16.7034 11.989 17.0003 12.8106 16.5513L13.1886 16.3414L14.6282 17.9053C13.1232 18.4773 12.3961 20.6856 12.3961 20.6856C12.2871 21.0983 12.2871 21.4966 12.3234 21.7934C12.3307 21.8658 12.3452 21.9382 12.3525 21.9962C12.3598 22.0903 12.3307 22.2423 12.2798 22.4161C12.1562 22.8433 11.8581 23.1981 11.4655 23.4153L5.19111 26.8038V26.4128V25.6091V13.0832L5.19838 13.0759H5.5619H6.07084C6.07811 12.8949 6.10719 12.7139 6.15808 12.5401C6.21624 12.3519 6.28895 12.1709 6.39074 12.0043C6.19443 11.3672 6.18716 10.6938 6.36892 10.0349H5.56917H5.20565C3.51163 10.0349 2.14479 11.4034 2.14479 13.0832V25.6019V26.268V28.5126C2.14479 28.9108 2.00665 29.2945 1.75945 29.5986L0.181762 31.5318C0.0654341 31.6766 0 31.8576 0 32.0459V32.9292C0 34.0732 0.930619 35 2.07208 35ZM12.0399 14.9367L9.88056 11.0269L12.3598 9.67292L14.5191 13.5828L12.0399 14.9367ZM14.1919 31.7635H20.8226V31.988C20.8226 32.5672 20.35 33.0378 19.7684 33.0378H15.2462C14.6645 33.0378 14.1919 32.5672 14.1919 31.988V31.7635Z" fill="#CED1D9"/>
<path d="M26.071 5.61282C26.2115 5.97619 26.541 6.10488 26.8004 5.90806L28.7237 4.4243C28.983 4.22747 29.0749 3.76569 28.9344 3.40232L28.929 3.38718C28.7885 3.02381 28.459 2.89512 28.1996 3.09194L26.2763 4.5757C26.017 4.77253 25.9251 5.23431 26.0656 5.59768L26.071 5.61282Z" fill="#CED1D9"/>
<path d="M26.136 3.7227L27.8519 1.25285C28.0664 0.943154 28.0469 0.486348 27.7999 0.20762C27.5269 -0.0943364 27.098 -0.0633666 26.8575 0.277302L25.1481 2.74715C24.9336 3.05685 24.9531 3.51365 25.2001 3.79238C25.4666 4.09434 25.8955 4.06337 26.136 3.7227Z" fill="#CED1D9"/>
<path d="M30.0827 6.00358L26.7123 6.20858C26.2449 6.23672 25.925 6.45377 26.0153 6.67887C26.0973 6.88387 26.4909 7.02456 26.9173 6.99642L30.2877 6.79142C30.7551 6.76328 31.075 6.54623 30.9847 6.32113C30.8945 6.11613 30.5009 5.97544 30.0827 6.00358Z" fill="#CED1D9"/>
</g>
<defs>
<clipPath id="clip0_123_4">
<rect width="35" height="35" fill="white"/>
</clipPath>
</defs>
</svg>
