<svg width="35" height="35" viewBox="0 0 35 35" fill="none" xmlns="http://www.w3.org/2000/svg">
<g clip-path="url(#clip0_304_2)">
<rect width="35" height="35" rx="17.5" fill="url(#paint0_linear_304_2)"/>
<path d="M22.2915 7.9165C23.5612 7.92029 24.7779 8.42638 25.6758 9.32423C26.5736 10.2221 27.0797 11.4388 27.0835 12.7085V22.2915C27.0797 23.5612 26.5736 24.7779 25.6758 25.6758C24.7779 26.5736 23.5612 27.0797 22.2915 27.0835H12.7085C11.4388 27.0797 10.2221 26.5736 9.32423 25.6758C8.42638 24.7779 7.92029 23.5612 7.9165 22.2915V12.7085C7.92029 11.4388 8.42638 10.2221 9.32423 9.32423C10.2221 8.42638 11.4388 7.92029 12.7085 7.9165H22.2915ZM22.2915 6H12.7085C9.01875 6 6 9.01875 6 12.7085V22.2915C6 25.9813 9.01875 29 12.7085 29H22.2915C25.9813 29 29 25.9813 29 22.2915V12.7085C29 9.01875 25.9813 6 22.2915 6Z" fill="#F5F5F5"/>
<path d="M23.0407 12.9797C22.797 12.9797 22.5588 12.9075 22.3561 12.7721C22.1535 12.6367 21.9956 12.4443 21.9023 12.2191C21.8091 11.994 21.7846 11.7462 21.8322 11.5072C21.8797 11.2682 21.9971 11.0486 22.1694 10.8763C22.3417 10.704 22.5613 10.5866 22.8003 10.5391C23.0393 10.4916 23.2871 10.516 23.5122 10.6092C23.7373 10.7025 23.9298 10.8604 24.0652 11.063C24.2006 11.2657 24.2728 11.5039 24.2728 11.7476C24.2732 11.9095 24.2415 12.0699 24.1797 12.2195C24.118 12.3692 24.0272 12.5051 23.9127 12.6196C23.7982 12.7341 23.6623 12.8249 23.5126 12.8867C23.363 12.9485 23.2026 12.9801 23.0407 12.9797ZM17.7015 13.8009C18.3514 13.8009 18.9867 13.9936 19.527 14.3547C20.0674 14.7157 20.4885 15.2289 20.7372 15.8293C20.9859 16.4298 21.051 17.0904 20.9242 17.7278C20.7974 18.3652 20.4845 18.9507 20.025 19.4103C19.5654 19.8698 18.9799 20.1828 18.3425 20.3096C17.7051 20.4363 17.0444 20.3713 16.444 20.1226C15.8436 19.8739 15.3304 19.4527 14.9693 18.9123C14.6083 18.372 14.4156 17.7367 14.4156 17.0868C14.4165 16.2156 14.763 15.3804 15.379 14.7643C15.995 14.1483 16.8303 13.8018 17.7015 13.8009ZM17.7015 12.1582C16.7267 12.1582 15.7738 12.4472 14.9633 12.9888C14.1528 13.5303 13.521 14.3001 13.148 15.2007C12.775 16.1013 12.6774 17.0923 12.8675 18.0483C13.0577 19.0044 13.5271 19.8826 14.2164 20.5719C14.9057 21.2611 15.7839 21.7305 16.7399 21.9207C17.696 22.1109 18.687 22.0133 19.5876 21.6403C20.4882 21.2672 21.2579 20.6355 21.7995 19.825C22.341 19.0145 22.6301 18.0616 22.6301 17.0868C22.6301 15.7796 22.1108 14.526 21.1865 13.6017C20.2622 12.6774 19.0086 12.1582 17.7015 12.1582Z" fill="#F5F5F5"/>
</g>
<defs>
<linearGradient id="paint0_linear_304_2" x1="30.5" y1="5.5" x2="1.49999" y2="34.5" gradientUnits="userSpaceOnUse">
<stop stop-color="#285AEB"/>
<stop offset="0.239583" stop-color="#D6249F"/>
<stop offset="0.473958" stop-color="#FD5949"/>
<stop offset="0.810113" stop-color="#FDF497"/>
<stop offset="1" stop-color="#FDF497"/>
</linearGradient>
<clipPath id="clip0_304_2">
<rect width="35" height="35" fill="white"/>
</clipPath>
</defs>
</svg>
