<svg width="35" height="35" viewBox="0 0 35 35" fill="none" xmlns="http://www.w3.org/2000/svg">
<path d="M16.5703 19.9951C16.9394 19.6259 17.5752 19.6259 17.9443 19.9951L23.208 25.2588C24.1787 26.2295 25.4707 26.7627 26.8379 26.7627H27.8701L21.2324 33.4004C19.1611 35.417 15.7978 35.417 13.7265 33.4004L7.06149 26.7422H7.69723C9.06442 26.7422 10.3564 26.209 11.3271 25.2382L16.5703 19.9951ZM17.9443 14.9638C17.5068 15.3398 16.9463 15.3466 16.5703 14.9638L11.3271 9.72067C10.3564 8.68844 9.06442 8.21676 7.69723 8.21676H7.06149L13.7197 1.55583C15.7978 -0.518608 19.1611 -0.518608 21.2324 1.55583L27.8769 8.19626H26.8379C25.4707 8.19626 24.1787 8.72946 23.208 9.70016L17.9443 14.9638ZM7.69723 9.75485C8.64059 9.75485 9.50875 10.1377 10.2334 10.8076L15.4765 16.0507C15.9687 16.4814 16.6113 16.789 17.2607 16.789C17.9033 16.789 18.5459 16.4814 19.0381 16.0507L24.3017 10.7871C24.9716 10.124 25.8945 9.74118 26.8379 9.74118H29.415L33.4004 13.7265C35.4716 15.7978 35.4716 19.1611 33.4004 21.2324L29.415 25.2177H26.8379C25.8945 25.2177 24.9716 24.8349 24.3017 24.165L19.0381 18.9013C18.0879 17.9511 16.4267 17.9511 15.4765 18.9082L10.2334 24.1445C9.50875 24.8144 8.64059 25.1972 7.69723 25.1972H5.52204L1.55583 21.2324C-0.518608 19.1611 -0.518608 15.7978 1.55583 13.7265L5.52204 9.75485H7.69723Z" fill="#707070"/>
</svg>
