<svg width="35" height="35" viewBox="0 0 35 35" fill="none" xmlns="http://www.w3.org/2000/svg">
<g clip-path="url(#clip0_131_38)">
<path d="M17.4999 6.54718C19.2298 6.54718 20.6321 5.14487 20.6321 3.41503C20.6321 1.68518 19.2298 0.282867 17.4999 0.282867C15.7701 0.282867 14.3678 1.68518 14.3678 3.41503C14.3678 5.14487 15.7701 6.54718 17.4999 6.54718Z" fill="#989DAE"/>
<path d="M17.4999 8.33704C14.5345 8.33704 12.1305 10.741 12.1305 13.7065H22.8694C22.8694 10.741 20.4654 8.33704 17.4999 8.33704Z" fill="#989DAE"/>
<path d="M5.36942 27.5578C7.09927 27.5578 8.50158 26.1555 8.50158 24.4257C8.50158 22.6958 7.09927 21.2935 5.36942 21.2935C3.63958 21.2935 2.23727 22.6958 2.23727 24.4257C2.23727 26.1555 3.63958 27.5578 5.36942 27.5578Z" fill="#989DAE"/>
<path d="M5.36942 29.3477C2.40399 29.3477 0 31.7517 0 34.7172H10.7389C10.7389 31.7517 8.33492 29.3477 5.36942 29.3477Z" fill="#989DAE"/>
<path d="M29.6304 27.5578C31.3603 27.5578 32.7626 26.1555 32.7626 24.4257C32.7626 22.6958 31.3603 21.2935 29.6304 21.2935C27.9006 21.2935 26.4983 22.6958 26.4983 24.4257C26.4983 26.1555 27.9006 27.5578 29.6304 27.5578Z" fill="#989DAE"/>
<path d="M29.6306 29.3477C26.6651 29.3477 24.2612 31.7517 24.2612 34.7171H35C35 31.7517 32.596 29.3477 29.6306 29.3477Z" fill="#989DAE"/>
<path d="M23.0625 25.8531L18.395 23.1582V17.7684C18.395 17.2742 17.9942 16.8736 17.5001 16.8736C17.0059 16.8736 16.6052 17.2742 16.6052 17.7684V23.1582L11.9376 25.8531C11.5095 26.1002 11.3629 26.6475 11.6101 27.0756C11.8573 27.5036 12.4047 27.6503 12.8326 27.4031L17.5001 24.7082L22.1677 27.4031C22.3087 27.4844 22.4625 27.5231 22.6143 27.5231C22.9236 27.5231 23.2245 27.3627 23.3902 27.0756C23.6372 26.6476 23.4905 26.1002 23.0625 25.8531Z" fill="#989DAE"/>
</g>
<defs>
<clipPath id="clip0_131_38">
<rect width="35" height="35" fill="white"/>
</clipPath>
</defs>
</svg>
