<svg width="164" height="38" viewBox="0 0 164 38" fill="none" xmlns="http://www.w3.org/2000/svg">
<path d="M29.0539 23.3198C28.5636 21.9251 28.1762 21.6656 22.9638 6.64568C17.7515 -8.37423 13.2015 9.94591 10.9445 22.4625C12.1369 16.8391 12.3603 8.16944 8.78319 6.64568C5.20608 5.12192 2.03766 21.2809 1.01563 28.8997C0.852921 30.6047 1.99191 32.6197 2.96816 28.8997C3.45629 24.2497 6.13538 25.0214 11.7389 25.0214H55.6708H163.494H164" stroke="#FF9D14" stroke-width="2"/>
<path d="M48.3636 12.132C49.3156 12.132 50.081 12.426 50.6596 13.014C51.2476 13.5927 51.5416 14.4047 51.5416 15.45V20H49.5816V15.716C49.5816 15.1093 49.4276 14.6473 49.1196 14.33C48.8116 14.0033 48.3916 13.84 47.8596 13.84C47.3276 13.84 46.903 14.0033 46.5856 14.33C46.2776 14.6473 46.1236 15.1093 46.1236 15.716V20H44.1636V15.716C44.1636 15.1093 44.0096 14.6473 43.7016 14.33C43.3936 14.0033 42.9736 13.84 42.4416 13.84C41.9003 13.84 41.471 14.0033 41.1536 14.33C40.8456 14.6473 40.6916 15.1093 40.6916 15.716V20H38.7316V12.244H40.6916V13.182C40.9436 12.8553 41.2656 12.5987 41.6576 12.412C42.059 12.2253 42.4976 12.132 42.9736 12.132C43.5803 12.132 44.1216 12.2627 44.5976 12.524C45.0736 12.776 45.4423 13.14 45.7036 13.616C45.9556 13.168 46.3196 12.8087 46.7956 12.538C47.281 12.2673 47.8036 12.132 48.3636 12.132ZM56.8455 20.126C56.0989 20.126 55.4269 19.9627 54.8295 19.636C54.2322 19.3 53.7609 18.8287 53.4155 18.222C53.0795 17.6153 52.9115 16.9153 52.9115 16.122C52.9115 15.3287 53.0842 14.6287 53.4295 14.022C53.7842 13.4153 54.2649 12.9487 54.8715 12.622C55.4782 12.286 56.1549 12.118 56.9015 12.118C57.6482 12.118 58.3249 12.286 58.9315 12.622C59.5382 12.9487 60.0142 13.4153 60.3595 14.022C60.7142 14.6287 60.8915 15.3287 60.8915 16.122C60.8915 16.9153 60.7095 17.6153 60.3455 18.222C59.9909 18.8287 59.5055 19.3 58.8895 19.636C58.2829 19.9627 57.6015 20.126 56.8455 20.126ZM56.8455 18.418C57.2002 18.418 57.5315 18.334 57.8395 18.166C58.1569 17.9887 58.4089 17.7273 58.5955 17.382C58.7822 17.0367 58.8755 16.6167 58.8755 16.122C58.8755 15.3847 58.6795 14.82 58.2875 14.428C57.9049 14.0267 57.4335 13.826 56.8735 13.826C56.3135 13.826 55.8422 14.0267 55.4595 14.428C55.0862 14.82 54.8995 15.3847 54.8995 16.122C54.8995 16.8593 55.0815 17.4287 55.4455 17.83C55.8189 18.222 56.2855 18.418 56.8455 18.418ZM66.6273 12.132C67.5513 12.132 68.2979 12.426 68.8673 13.014C69.4366 13.5927 69.7213 14.4047 69.7213 15.45V20H67.7613V15.716C67.7613 15.1 67.6073 14.6287 67.2993 14.302C66.9913 13.966 66.5713 13.798 66.0393 13.798C65.4979 13.798 65.0686 13.966 64.7513 14.302C64.4433 14.6287 64.2893 15.1 64.2893 15.716V20H62.3293V12.244H64.2893V13.21C64.5506 12.874 64.8819 12.6127 65.2833 12.426C65.6939 12.23 66.1419 12.132 66.6273 12.132ZM73.8671 13.854V17.606C73.8671 17.8673 73.9278 18.0587 74.0491 18.18C74.1798 18.292 74.3945 18.348 74.6931 18.348H75.6031V20H74.3711C72.7191 20 71.8931 19.1973 71.8931 17.592V13.854H70.9691V12.244H71.8931V10.326H73.8671V12.244H75.6031V13.854H73.8671ZM84.2229 15.954C84.2229 16.234 84.2042 16.486 84.1669 16.71H78.4969C78.5435 17.27 78.7395 17.7087 79.0849 18.026C79.4302 18.3433 79.8549 18.502 80.3589 18.502C81.0869 18.502 81.6049 18.1893 81.9129 17.564H84.0269C83.8029 18.3107 83.3735 18.9267 82.7389 19.412C82.1042 19.888 81.3249 20.126 80.4009 20.126C79.6542 20.126 78.9822 19.9627 78.3849 19.636C77.7969 19.3 77.3349 18.8287 76.9989 18.222C76.6722 17.6153 76.5089 16.9153 76.5089 16.122C76.5089 15.3193 76.6722 14.6147 76.9989 14.008C77.3255 13.4013 77.7829 12.9347 78.3709 12.608C78.9589 12.2813 79.6355 12.118 80.4009 12.118C81.1382 12.118 81.7962 12.2767 82.3749 12.594C82.9629 12.9113 83.4155 13.364 83.7329 13.952C84.0595 14.5307 84.2229 15.198 84.2229 15.954ZM82.1929 15.394C82.1835 14.89 82.0015 14.4887 81.6469 14.19C81.2922 13.882 80.8582 13.728 80.3449 13.728C79.8595 13.728 79.4489 13.8773 79.1129 14.176C78.7862 14.4653 78.5855 14.8713 78.5109 15.394H82.1929ZM88.6215 20.126C87.9868 20.126 87.4175 20.014 86.9135 19.79C86.4095 19.5567 86.0082 19.244 85.7095 18.852C85.4202 18.46 85.2615 18.026 85.2335 17.55H87.2075C87.2448 17.8487 87.3895 18.096 87.6415 18.292C87.9028 18.488 88.2248 18.586 88.6075 18.586C88.9808 18.586 89.2702 18.5113 89.4755 18.362C89.6902 18.2127 89.7975 18.0213 89.7975 17.788C89.7975 17.536 89.6668 17.3493 89.4055 17.228C89.1535 17.0973 88.7475 16.9573 88.1875 16.808C87.6088 16.668 87.1328 16.5233 86.7595 16.374C86.3955 16.2247 86.0782 15.996 85.8075 15.688C85.5462 15.38 85.4155 14.9647 85.4155 14.442C85.4155 14.0127 85.5368 13.6207 85.7795 13.266C86.0315 12.9113 86.3862 12.6313 86.8435 12.426C87.3102 12.2207 87.8562 12.118 88.4815 12.118C89.4055 12.118 90.1428 12.3513 90.6935 12.818C91.2442 13.2753 91.5475 13.896 91.6035 14.68H89.7275C89.6995 14.372 89.5688 14.1293 89.3355 13.952C89.1115 13.7653 88.8082 13.672 88.4255 13.672C88.0708 13.672 87.7955 13.7373 87.5995 13.868C87.4128 13.9987 87.3195 14.1807 87.3195 14.414C87.3195 14.6753 87.4502 14.876 87.7115 15.016C87.9728 15.1467 88.3788 15.282 88.9295 15.422C89.4895 15.562 89.9515 15.7067 90.3155 15.856C90.6795 16.0053 90.9922 16.2387 91.2535 16.556C91.5242 16.864 91.6642 17.2747 91.6735 17.788C91.6735 18.236 91.5475 18.6373 91.2955 18.992C91.0528 19.3467 90.6982 19.6267 90.2315 19.832C89.7742 20.028 89.2375 20.126 88.6215 20.126ZM95.2424 13.378C95.4944 13.0047 95.8397 12.7013 96.2784 12.468C96.7264 12.2347 97.2351 12.118 97.8044 12.118C98.4671 12.118 99.0644 12.2813 99.5964 12.608C100.138 12.9347 100.562 13.4013 100.87 14.008C101.188 14.6053 101.346 15.3007 101.346 16.094C101.346 16.8873 101.188 17.592 100.87 18.208C100.562 18.8147 100.138 19.286 99.5964 19.622C99.0644 19.958 98.4671 20.126 97.8044 20.126C97.2257 20.126 96.7171 20.014 96.2784 19.79C95.8491 19.5567 95.5037 19.258 95.2424 18.894V20H93.2824V9.64H95.2424V13.378ZM99.3444 16.094C99.3444 15.6273 99.2464 15.226 99.0504 14.89C98.8637 14.5447 98.6117 14.2833 98.2944 14.106C97.9864 13.9287 97.6504 13.84 97.2864 13.84C96.9317 13.84 96.5957 13.9333 96.2784 14.12C95.9704 14.2973 95.7184 14.5587 95.5224 14.904C95.3357 15.2493 95.2424 15.6553 95.2424 16.122C95.2424 16.5887 95.3357 16.9947 95.5224 17.34C95.7184 17.6853 95.9704 17.9513 96.2784 18.138C96.5957 18.3153 96.9317 18.404 97.2864 18.404C97.6504 18.404 97.9864 18.3107 98.2944 18.124C98.6117 17.9373 98.8637 17.6713 99.0504 17.326C99.2464 16.9807 99.3444 16.57 99.3444 16.094ZM109.981 15.954C109.981 16.234 109.962 16.486 109.925 16.71H104.255C104.301 17.27 104.497 17.7087 104.843 18.026C105.188 18.3433 105.613 18.502 106.117 18.502C106.845 18.502 107.363 18.1893 107.671 17.564H109.785C109.561 18.3107 109.131 18.9267 108.497 19.412C107.862 19.888 107.083 20.126 106.159 20.126C105.412 20.126 104.74 19.9627 104.143 19.636C103.555 19.3 103.093 18.8287 102.757 18.222C102.43 17.6153 102.267 16.9153 102.267 16.122C102.267 15.3193 102.43 14.6147 102.757 14.008C103.083 13.4013 103.541 12.9347 104.129 12.608C104.717 12.2813 105.393 12.118 106.159 12.118C106.896 12.118 107.554 12.2767 108.133 12.594C108.721 12.9113 109.173 13.364 109.491 13.952C109.817 14.5307 109.981 15.198 109.981 15.954ZM107.951 15.394C107.941 14.89 107.759 14.4887 107.405 14.19C107.05 13.882 106.616 13.728 106.103 13.728C105.617 13.728 105.207 13.8773 104.871 14.176C104.544 14.4653 104.343 14.8713 104.269 15.394H107.951ZM113.371 9.64V20H111.411V9.64H113.371ZM118.752 20.126C118.005 20.126 117.333 19.9627 116.736 19.636C116.138 19.3 115.667 18.8287 115.322 18.222C114.986 17.6153 114.818 16.9153 114.818 16.122C114.818 15.3287 114.99 14.6287 115.336 14.022C115.69 13.4153 116.171 12.9487 116.778 12.622C117.384 12.286 118.061 12.118 118.808 12.118C119.554 12.118 120.231 12.286 120.838 12.622C121.444 12.9487 121.92 13.4153 122.266 14.022C122.62 14.6287 122.798 15.3287 122.798 16.122C122.798 16.9153 122.616 17.6153 122.252 18.222C121.897 18.8287 121.412 19.3 120.796 19.636C120.189 19.9627 119.508 20.126 118.752 20.126ZM118.752 18.418C119.106 18.418 119.438 18.334 119.746 18.166C120.063 17.9887 120.315 17.7273 120.502 17.382C120.688 17.0367 120.782 16.6167 120.782 16.122C120.782 15.3847 120.586 14.82 120.194 14.428C119.811 14.0267 119.34 13.826 118.78 13.826C118.22 13.826 117.748 14.0267 117.366 14.428C116.992 14.82 116.806 15.3847 116.806 16.122C116.806 16.8593 116.988 17.4287 117.352 17.83C117.725 18.222 118.192 18.418 118.752 18.418ZM127.204 20.126C126.569 20.126 126 20.014 125.496 19.79C124.992 19.5567 124.59 19.244 124.292 18.852C124.002 18.46 123.844 18.026 123.816 17.55H125.79C125.827 17.8487 125.972 18.096 126.224 18.292C126.485 18.488 126.807 18.586 127.19 18.586C127.563 18.586 127.852 18.5113 128.058 18.362C128.272 18.2127 128.38 18.0213 128.38 17.788C128.38 17.536 128.249 17.3493 127.988 17.228C127.736 17.0973 127.33 16.9573 126.77 16.808C126.191 16.668 125.715 16.5233 125.342 16.374C124.978 16.2247 124.66 15.996 124.39 15.688C124.128 15.38 123.998 14.9647 123.998 14.442C123.998 14.0127 124.119 13.6207 124.362 13.266C124.614 12.9113 124.968 12.6313 125.426 12.426C125.892 12.2207 126.438 12.118 127.064 12.118C127.988 12.118 128.725 12.3513 129.276 12.818C129.826 13.2753 130.13 13.896 130.186 14.68H128.31C128.282 14.372 128.151 14.1293 127.918 13.952C127.694 13.7653 127.39 13.672 127.008 13.672C126.653 13.672 126.378 13.7373 126.182 13.868C125.995 13.9987 125.902 14.1807 125.902 14.414C125.902 14.6753 126.032 14.876 126.294 15.016C126.555 15.1467 126.961 15.282 127.512 15.422C128.072 15.562 128.534 15.7067 128.898 15.856C129.262 16.0053 129.574 16.2387 129.836 16.556C130.106 16.864 130.246 17.2747 130.256 17.788C130.256 18.236 130.13 18.6373 129.878 18.992C129.635 19.3467 129.28 19.6267 128.814 19.832C128.356 20.028 127.82 20.126 127.204 20.126Z" fill="#E5E5E5"/>
<path d="M132.732 20.098C132.378 20.098 132.084 19.9907 131.85 19.776C131.626 19.552 131.514 19.2767 131.514 18.95C131.514 18.6233 131.626 18.3527 131.85 18.138C132.084 17.914 132.378 17.802 132.732 17.802C133.078 17.802 133.362 17.914 133.586 18.138C133.81 18.3527 133.922 18.6233 133.922 18.95C133.922 19.2767 133.81 19.552 133.586 19.776C133.362 19.9907 133.078 20.098 132.732 20.098ZM134.997 16.094C134.997 15.31 135.151 14.6147 135.459 14.008C135.776 13.4013 136.201 12.9347 136.733 12.608C137.274 12.2813 137.876 12.118 138.539 12.118C139.118 12.118 139.622 12.2347 140.051 12.468C140.49 12.7013 140.84 12.9953 141.101 13.35V12.244H143.075V20H141.101V18.866C140.849 19.23 140.499 19.5333 140.051 19.776C139.612 20.0093 139.104 20.126 138.525 20.126C137.872 20.126 137.274 19.958 136.733 19.622C136.201 19.286 135.776 18.8147 135.459 18.208C135.151 17.592 134.997 16.8873 134.997 16.094ZM141.101 16.122C141.101 15.646 141.008 15.24 140.821 14.904C140.634 14.5587 140.382 14.2973 140.065 14.12C139.748 13.9333 139.407 13.84 139.043 13.84C138.679 13.84 138.343 13.9287 138.035 14.106C137.727 14.2833 137.475 14.5447 137.279 14.89C137.092 15.226 136.999 15.6273 136.999 16.094C136.999 16.5607 137.092 16.9713 137.279 17.326C137.475 17.6713 137.727 17.9373 138.035 18.124C138.352 18.3107 138.688 18.404 139.043 18.404C139.407 18.404 139.748 18.3153 140.065 18.138C140.382 17.9513 140.634 17.69 140.821 17.354C141.008 17.0087 141.101 16.598 141.101 16.122ZM146.949 13.364C147.201 13.0093 147.547 12.7153 147.985 12.482C148.433 12.2393 148.942 12.118 149.511 12.118C150.174 12.118 150.771 12.2813 151.303 12.608C151.845 12.9347 152.269 13.4013 152.577 14.008C152.895 14.6053 153.053 15.3007 153.053 16.094C153.053 16.8873 152.895 17.592 152.577 18.208C152.269 18.8147 151.845 19.286 151.303 19.622C150.771 19.958 150.174 20.126 149.511 20.126C148.942 20.126 148.438 20.0093 147.999 19.776C147.57 19.5427 147.22 19.2487 146.949 18.894V23.696H144.989V12.244H146.949V13.364ZM151.051 16.094C151.051 15.6273 150.953 15.226 150.757 14.89C150.571 14.5447 150.319 14.2833 150.001 14.106C149.693 13.9287 149.357 13.84 148.993 13.84C148.639 13.84 148.303 13.9333 147.985 14.12C147.677 14.2973 147.425 14.5587 147.229 14.904C147.043 15.2493 146.949 15.6553 146.949 16.122C146.949 16.5887 147.043 16.9947 147.229 17.34C147.425 17.6853 147.677 17.9513 147.985 18.138C148.303 18.3153 148.639 18.404 148.993 18.404C149.357 18.404 149.693 18.3107 150.001 18.124C150.319 17.9373 150.571 17.6713 150.757 17.326C150.953 16.9807 151.051 16.57 151.051 16.094ZM156.438 13.364C156.69 13.0093 157.035 12.7153 157.474 12.482C157.922 12.2393 158.43 12.118 159 12.118C159.662 12.118 160.26 12.2813 160.792 12.608C161.333 12.9347 161.758 13.4013 162.066 14.008C162.383 14.6053 162.542 15.3007 162.542 16.094C162.542 16.8873 162.383 17.592 162.066 18.208C161.758 18.8147 161.333 19.286 160.792 19.622C160.26 19.958 159.662 20.126 159 20.126C158.43 20.126 157.926 20.0093 157.488 19.776C157.058 19.5427 156.708 19.2487 156.438 18.894V23.696H154.478V12.244H156.438V13.364ZM160.54 16.094C160.54 15.6273 160.442 15.226 160.246 14.89C160.059 14.5447 159.807 14.2833 159.49 14.106C159.182 13.9287 158.846 13.84 158.482 13.84C158.127 13.84 157.791 13.9333 157.474 14.12C157.166 14.2973 156.914 14.5587 156.718 14.904C156.531 15.2493 156.438 15.6553 156.438 16.122C156.438 16.5887 156.531 16.9947 156.718 17.34C156.914 17.6853 157.166 17.9513 157.474 18.138C157.791 18.3153 158.127 18.404 158.482 18.404C158.846 18.404 159.182 18.3107 159.49 18.124C159.807 17.9373 160.059 17.6713 160.246 17.326C160.442 16.9807 160.54 16.57 160.54 16.094Z" fill="#FF9D14"/>
<path d="M30.4789 34.056C30.1055 34.056 29.7695 33.992 29.4709 33.864C29.1722 33.7307 28.9375 33.544 28.7669 33.304C28.5962 33.064 28.5109 32.784 28.5109 32.464H29.4869C29.5082 32.704 29.6015 32.9013 29.7669 33.056C29.9375 33.2107 30.1749 33.288 30.4789 33.288C30.7935 33.288 31.0389 33.2133 31.2149 33.064C31.3909 32.9093 31.4789 32.712 31.4789 32.472C31.4789 32.2853 31.4229 32.1333 31.3109 32.016C31.2042 31.8987 31.0682 31.808 30.9029 31.744C30.7429 31.68 30.5189 31.6107 30.2309 31.536C29.8682 31.44 29.5722 31.344 29.3429 31.248C29.1189 31.1467 28.9269 30.992 28.7669 30.784C28.6069 30.576 28.5269 30.2987 28.5269 29.952C28.5269 29.632 28.6069 29.352 28.7669 29.112C28.9269 28.872 29.1509 28.688 29.4389 28.56C29.7269 28.432 30.0602 28.368 30.4389 28.368C30.9775 28.368 31.4175 28.504 31.7589 28.776C32.1055 29.0427 32.2975 29.4107 32.3349 29.88H31.3269C31.3109 29.6773 31.2149 29.504 31.0389 29.36C30.8629 29.216 30.6309 29.144 30.3429 29.144C30.0815 29.144 29.8682 29.2107 29.7029 29.344C29.5375 29.4773 29.4549 29.6693 29.4549 29.92C29.4549 30.0907 29.5055 30.232 29.6069 30.344C29.7135 30.4507 29.8469 30.536 30.0069 30.6C30.1669 30.664 30.3855 30.7333 30.6629 30.808C31.0309 30.9093 31.3295 31.0107 31.5589 31.112C31.7935 31.2133 31.9909 31.3707 32.1509 31.584C32.3162 31.792 32.3989 32.072 32.3989 32.424C32.3989 32.7067 32.3215 32.9733 32.1669 33.224C32.0175 33.4747 31.7962 33.6773 31.5029 33.832C31.2149 33.9813 30.8735 34.056 30.4789 34.056ZM37.515 31.688C37.515 31.8533 37.5043 32.0027 37.483 32.136H34.115C34.1417 32.488 34.2723 32.7707 34.507 32.984C34.7417 33.1973 35.0297 33.304 35.371 33.304C35.8617 33.304 36.2083 33.0987 36.411 32.688H37.395C37.2617 33.0933 37.019 33.4267 36.667 33.688C36.3203 33.944 35.8883 34.072 35.371 34.072C34.9497 34.072 34.571 33.9787 34.235 33.792C33.9043 33.6 33.643 33.3333 33.451 32.992C33.2643 32.6453 33.171 32.2453 33.171 31.792C33.171 31.3387 33.2617 30.9413 33.443 30.6C33.6297 30.2533 33.8883 29.9867 34.219 29.8C34.555 29.6133 34.939 29.52 35.371 29.52C35.787 29.52 36.1577 29.6107 36.483 29.792C36.8083 29.9733 37.0617 30.2293 37.243 30.56C37.4243 30.8853 37.515 31.2613 37.515 31.688ZM36.563 31.4C36.5577 31.064 36.4377 30.7947 36.203 30.592C35.9683 30.3893 35.6777 30.288 35.331 30.288C35.0163 30.288 34.747 30.3893 34.523 30.592C34.299 30.7893 34.1657 31.0587 34.123 31.4H36.563ZM42.4045 29.592V34H41.4925V33.48C41.3485 33.6613 41.1592 33.8053 40.9245 33.912C40.6952 34.0133 40.4498 34.064 40.1885 34.064C39.8418 34.064 39.5298 33.992 39.2525 33.848C38.9805 33.704 38.7645 33.4907 38.6045 33.208C38.4498 32.9253 38.3725 32.584 38.3725 32.184V29.592H39.2765V32.048C39.2765 32.4427 39.3752 32.7467 39.5725 32.96C39.7698 33.168 40.0392 33.272 40.3805 33.272C40.7218 33.272 40.9912 33.168 41.1885 32.96C41.3912 32.7467 41.4925 32.4427 41.4925 32.048V29.592H42.4045ZM47.9099 29.52C48.2566 29.52 48.5659 29.592 48.8379 29.736C49.1153 29.88 49.3313 30.0933 49.4859 30.376C49.6406 30.6587 49.7179 31 49.7179 31.4V34H48.8139V31.536C48.8139 31.1413 48.7153 30.84 48.5179 30.632C48.3206 30.4187 48.0513 30.312 47.7099 30.312C47.3686 30.312 47.0966 30.4187 46.8939 30.632C46.6966 30.84 46.5979 31.1413 46.5979 31.536V34H45.6859V29.592H46.5979V30.096C46.7473 29.9147 46.9366 29.7733 47.1659 29.672C47.4006 29.5707 47.6486 29.52 47.9099 29.52ZM54.9213 31.688C54.9213 31.8533 54.9106 32.0027 54.8893 32.136H51.5213C51.5479 32.488 51.6786 32.7707 51.9133 32.984C52.1479 33.1973 52.4359 33.304 52.7773 33.304C53.2679 33.304 53.6146 33.0987 53.8173 32.688H54.8012C54.6679 33.0933 54.4253 33.4267 54.0733 33.688C53.7266 33.944 53.2946 34.072 52.7773 34.072C52.3559 34.072 51.9773 33.9787 51.6413 33.792C51.3106 33.6 51.0493 33.3333 50.8573 32.992C50.6706 32.6453 50.5773 32.2453 50.5773 31.792C50.5773 31.3387 50.6679 30.9413 50.8493 30.6C51.0359 30.2533 51.2946 29.9867 51.6253 29.8C51.9613 29.6133 52.3453 29.52 52.7773 29.52C53.1933 29.52 53.5639 29.6107 53.8893 29.792C54.2146 29.9733 54.4679 30.2293 54.6493 30.56C54.8306 30.8853 54.9213 31.2613 54.9213 31.688ZM53.9693 31.4C53.9639 31.064 53.8439 30.7947 53.6093 30.592C53.3746 30.3893 53.0839 30.288 52.7373 30.288C52.4226 30.288 52.1533 30.3893 51.9293 30.592C51.7053 30.7893 51.5719 31.0587 51.5293 31.4H53.9693ZM57.5948 29.52C57.9361 29.52 58.2374 29.5893 58.4988 29.728C58.7654 29.8613 58.9734 30.0293 59.1228 30.232V29.592H60.0428V34.072C60.0428 34.4773 59.9574 34.8373 59.7868 35.152C59.6161 35.472 59.3681 35.7227 59.0428 35.904C58.7228 36.0853 58.3388 36.176 57.8908 36.176C57.2934 36.176 56.7974 36.0347 56.4028 35.752C56.0081 35.4747 55.7841 35.096 55.7308 34.616H56.6348C56.7041 34.8453 56.8508 35.0293 57.0748 35.168C57.3041 35.312 57.5761 35.384 57.8908 35.384C58.2588 35.384 58.5548 35.272 58.7788 35.048C59.0081 34.824 59.1228 34.4987 59.1228 34.072V33.336C58.9681 33.544 58.7574 33.72 58.4908 33.864C58.2294 34.0027 57.9308 34.072 57.5948 34.072C57.2108 34.072 56.8588 33.976 56.5388 33.784C56.2241 33.5867 55.9734 33.3147 55.7868 32.968C55.6054 32.616 55.5148 32.2187 55.5148 31.776C55.5148 31.3333 55.6054 30.9413 55.7868 30.6C55.9734 30.2587 56.2241 29.9947 56.5388 29.808C56.8588 29.616 57.2108 29.52 57.5948 29.52ZM59.1228 31.792C59.1228 31.488 59.0588 31.224 58.9308 31C58.8081 30.776 58.6454 30.6053 58.4428 30.488C58.2401 30.3707 58.0214 30.312 57.7868 30.312C57.5521 30.312 57.3334 30.3707 57.1308 30.488C56.9281 30.6 56.7628 30.768 56.6348 30.992C56.5121 31.2107 56.4508 31.472 56.4508 31.776C56.4508 32.08 56.5121 32.3467 56.6348 32.576C56.7628 32.8053 56.9281 32.9813 57.1308 33.104C57.3388 33.2213 57.5574 33.28 57.7868 33.28C58.0214 33.28 58.2401 33.2213 58.4428 33.104C58.6454 32.9867 58.8081 32.816 58.9308 32.592C59.0588 32.3627 59.1228 32.096 59.1228 31.792ZM63.1526 34.072C62.7366 34.072 62.3606 33.9787 62.0246 33.792C61.6886 33.6 61.4246 33.3333 61.2326 32.992C61.0406 32.6453 60.9446 32.2453 60.9446 31.792C60.9446 31.344 61.0433 30.9467 61.2406 30.6C61.438 30.2533 61.7073 29.9867 62.0486 29.8C62.39 29.6133 62.7713 29.52 63.1926 29.52C63.614 29.52 63.9953 29.6133 64.3366 29.8C64.678 29.9867 64.9473 30.2533 65.1446 30.6C65.342 30.9467 65.4406 31.344 65.4406 31.792C65.4406 32.24 65.3393 32.6373 65.1366 32.984C64.934 33.3307 64.6566 33.6 64.3046 33.792C63.958 33.9787 63.574 34.072 63.1526 34.072ZM63.1526 33.28C63.3873 33.28 63.606 33.224 63.8086 33.112C64.0166 33 64.1846 32.832 64.3126 32.608C64.4406 32.384 64.5046 32.112 64.5046 31.792C64.5046 31.472 64.4433 31.2027 64.3206 30.984C64.198 30.76 64.0353 30.592 63.8326 30.48C63.63 30.368 63.4113 30.312 63.1766 30.312C62.942 30.312 62.7233 30.368 62.5206 30.48C62.3233 30.592 62.166 30.76 62.0486 30.984C61.9313 31.2027 61.8726 31.472 61.8726 31.792C61.8726 32.2667 61.9926 32.6347 62.2326 32.896C62.478 33.152 62.7846 33.28 63.1526 33.28ZM64.0166 28.336L62.2486 29.208V28.536L64.0166 27.56V28.336ZM66.0382 31.792C66.0382 31.3387 66.1289 30.9413 66.3102 30.6C66.4969 30.2533 66.7529 29.9867 67.0782 29.8C67.4035 29.6133 67.7769 29.52 68.1982 29.52C68.7315 29.52 69.1715 29.648 69.5182 29.904C69.8702 30.1547 70.1075 30.5147 70.2302 30.984H69.2462C69.1662 30.7653 69.0382 30.5947 68.8622 30.472C68.6862 30.3493 68.4649 30.288 68.1982 30.288C67.8249 30.288 67.5262 30.4213 67.3022 30.688C67.0835 30.9493 66.9742 31.3173 66.9742 31.792C66.9742 32.2667 67.0835 32.6373 67.3022 32.904C67.5262 33.1707 67.8249 33.304 68.1982 33.304C68.7262 33.304 69.0755 33.072 69.2462 32.608H70.2302C70.1022 33.056 69.8622 33.4133 69.5102 33.68C69.1582 33.9413 68.7209 34.072 68.1982 34.072C67.7769 34.072 67.4035 33.9787 67.0782 33.792C66.7529 33.6 66.4969 33.3333 66.3102 32.992C66.1289 32.6453 66.0382 32.2453 66.0382 31.792ZM71.6031 29.008C71.4377 29.008 71.2991 28.952 71.1871 28.84C71.0751 28.728 71.0191 28.5893 71.0191 28.424C71.0191 28.2587 71.0751 28.12 71.1871 28.008C71.2991 27.896 71.4377 27.84 71.6031 27.84C71.7631 27.84 71.8991 27.896 72.0111 28.008C72.1231 28.12 72.1791 28.2587 72.1791 28.424C72.1791 28.5893 72.1231 28.728 72.0111 28.84C71.8991 28.952 71.7631 29.008 71.6031 29.008ZM72.0511 29.592V34H71.1391V29.592H72.0511ZM75.1604 34.072C74.7444 34.072 74.3684 33.9787 74.0324 33.792C73.6964 33.6 73.4324 33.3333 73.2404 32.992C73.0484 32.6453 72.9524 32.2453 72.9524 31.792C72.9524 31.344 73.0511 30.9467 73.2484 30.6C73.4458 30.2533 73.7151 29.9867 74.0564 29.8C74.3978 29.6133 74.7791 29.52 75.2004 29.52C75.6218 29.52 76.0031 29.6133 76.3444 29.8C76.6858 29.9867 76.9551 30.2533 77.1524 30.6C77.3498 30.9467 77.4484 31.344 77.4484 31.792C77.4484 32.24 77.3471 32.6373 77.1444 32.984C76.9418 33.3307 76.6644 33.6 76.3124 33.792C75.9658 33.9787 75.5818 34.072 75.1604 34.072ZM75.1604 33.28C75.3951 33.28 75.6138 33.224 75.8164 33.112C76.0244 33 76.1924 32.832 76.3204 32.608C76.4484 32.384 76.5124 32.112 76.5124 31.792C76.5124 31.472 76.4511 31.2027 76.3284 30.984C76.2058 30.76 76.0431 30.592 75.8404 30.48C75.6378 30.368 75.4191 30.312 75.1844 30.312C74.9498 30.312 74.7311 30.368 74.5284 30.48C74.3311 30.592 74.1738 30.76 74.0564 30.984C73.9391 31.2027 73.8804 31.472 73.8804 31.792C73.8804 32.2667 74.0004 32.6347 74.2404 32.896C74.4858 33.152 74.7924 33.28 75.1604 33.28ZM80.1241 31.776C80.1241 31.3333 80.2148 30.9413 80.3961 30.6C80.5828 30.2587 80.8335 29.9947 81.1481 29.808C81.4681 29.616 81.8228 29.52 82.2121 29.52C82.5001 29.52 82.7828 29.584 83.0601 29.712C83.3428 29.8347 83.5668 30 83.7321 30.208V28.08H84.6521V34H83.7321V33.336C83.5828 33.5493 83.3748 33.7253 83.1081 33.864C82.8468 34.0027 82.5455 34.072 82.2041 34.072C81.8201 34.072 81.4681 33.976 81.1481 33.784C80.8335 33.5867 80.5828 33.3147 80.3961 32.968C80.2148 32.616 80.1241 32.2187 80.1241 31.776ZM83.7321 31.792C83.7321 31.488 83.6681 31.224 83.5401 31C83.4175 30.776 83.2548 30.6053 83.0521 30.488C82.8495 30.3707 82.6308 30.312 82.3961 30.312C82.1615 30.312 81.9428 30.3707 81.7401 30.488C81.5375 30.6 81.3721 30.768 81.2441 30.992C81.1215 31.2107 81.0601 31.472 81.0601 31.776C81.0601 32.08 81.1215 32.3467 81.2441 32.576C81.3721 32.8053 81.5375 32.9813 81.7401 33.104C81.9481 33.2213 82.1668 33.28 82.3961 33.28C82.6308 33.28 82.8495 33.2213 83.0521 33.104C83.2548 32.9867 83.4175 32.816 83.5401 32.592C83.6681 32.3627 83.7321 32.096 83.7321 31.792ZM86.314 29.008C86.1487 29.008 86.01 28.952 85.898 28.84C85.786 28.728 85.73 28.5893 85.73 28.424C85.73 28.2587 85.786 28.12 85.898 28.008C86.01 27.896 86.1487 27.84 86.314 27.84C86.474 27.84 86.61 27.896 86.722 28.008C86.834 28.12 86.89 28.2587 86.89 28.424C86.89 28.5893 86.834 28.728 86.722 28.84C86.61 28.952 86.474 29.008 86.314 29.008ZM86.762 29.592V34H85.85V29.592H86.762ZM89.7354 29.52C90.0767 29.52 90.378 29.5893 90.6394 29.728C90.906 29.8613 91.114 30.0293 91.2634 30.232V29.592H92.1834V34.072C92.1834 34.4773 92.098 34.8373 91.9274 35.152C91.7567 35.472 91.5087 35.7227 91.1834 35.904C90.8634 36.0853 90.4794 36.176 90.0314 36.176C89.434 36.176 88.938 36.0347 88.5434 35.752C88.1487 35.4747 87.9247 35.096 87.8714 34.616H88.7754C88.8447 34.8453 88.9914 35.0293 89.2154 35.168C89.4447 35.312 89.7167 35.384 90.0314 35.384C90.3994 35.384 90.6954 35.272 90.9194 35.048C91.1487 34.824 91.2634 34.4987 91.2634 34.072V33.336C91.1087 33.544 90.898 33.72 90.6314 33.864C90.37 34.0027 90.0714 34.072 89.7354 34.072C89.3514 34.072 88.9994 33.976 88.6794 33.784C88.3647 33.5867 88.114 33.3147 87.9274 32.968C87.746 32.616 87.6554 32.2187 87.6554 31.776C87.6554 31.3333 87.746 30.9413 87.9274 30.6C88.114 30.2587 88.3647 29.9947 88.6794 29.808C88.9994 29.616 89.3514 29.52 89.7354 29.52ZM91.2634 31.792C91.2634 31.488 91.1994 31.224 91.0714 31C90.9487 30.776 90.786 30.6053 90.5834 30.488C90.3807 30.3707 90.162 30.312 89.9274 30.312C89.6927 30.312 89.474 30.3707 89.2714 30.488C89.0687 30.6 88.9034 30.768 88.7754 30.992C88.6527 31.2107 88.5914 31.472 88.5914 31.776C88.5914 32.08 88.6527 32.3467 88.7754 32.576C88.9034 32.8053 89.0687 32.9813 89.2714 33.104C89.4794 33.2213 89.698 33.28 89.9274 33.28C90.162 33.28 90.3807 33.2213 90.5834 33.104C90.786 32.9867 90.9487 32.816 91.0714 32.592C91.1994 32.3627 91.2634 32.096 91.2634 31.792ZM93.8453 29.008C93.6799 29.008 93.5413 28.952 93.4293 28.84C93.3173 28.728 93.2613 28.5893 93.2613 28.424C93.2613 28.2587 93.3173 28.12 93.4293 28.008C93.5413 27.896 93.6799 27.84 93.8453 27.84C94.0053 27.84 94.1413 27.896 94.2533 28.008C94.3653 28.12 94.4213 28.2587 94.4213 28.424C94.4213 28.5893 94.3653 28.728 94.2533 28.84C94.1413 28.952 94.0053 29.008 93.8453 29.008ZM94.2933 29.592V34H93.3813V29.592H94.2933ZM96.5546 30.336V32.776C96.5546 32.9413 96.592 33.0613 96.6666 33.136C96.7466 33.2053 96.88 33.24 97.0666 33.24H97.6266V34H96.9066C96.496 34 96.1813 33.904 95.9626 33.712C95.744 33.52 95.6346 33.208 95.6346 32.776V30.336H95.1146V29.592H95.6346V28.496H96.5546V29.592H97.6266V30.336H96.5546ZM98.1632 31.776C98.1632 31.3333 98.2539 30.9413 98.4352 30.6C98.6219 30.2587 98.8725 29.9947 99.1872 29.808C99.5072 29.616 99.8592 29.52 100.243 29.52C100.59 29.52 100.891 29.5893 101.147 29.728C101.409 29.8613 101.617 30.0293 101.771 30.232V29.592H102.691V34H101.771V33.344C101.617 33.552 101.406 33.7253 101.139 33.864C100.873 34.0027 100.569 34.072 100.227 34.072C99.8485 34.072 99.5019 33.976 99.1872 33.784C98.8725 33.5867 98.6219 33.3147 98.4352 32.968C98.2539 32.616 98.1632 32.2187 98.1632 31.776ZM101.771 31.792C101.771 31.488 101.707 31.224 101.579 31C101.457 30.776 101.294 30.6053 101.091 30.488C100.889 30.3707 100.67 30.312 100.435 30.312C100.201 30.312 99.9819 30.3707 99.7792 30.488C99.5765 30.6 99.4112 30.768 99.2832 30.992C99.1605 31.2107 99.0992 31.472 99.0992 31.776C99.0992 32.08 99.1605 32.3467 99.2832 32.576C99.4112 32.8053 99.5765 32.9813 99.7792 33.104C99.9872 33.2213 100.206 33.28 100.435 33.28C100.67 33.28 100.889 33.2213 101.091 33.104C101.294 32.9867 101.457 32.816 101.579 32.592C101.707 32.3627 101.771 32.096 101.771 31.792ZM104.801 28.08V34H103.889V28.08H104.801ZM107.773 31.792C107.773 31.3387 107.863 30.9413 108.045 30.6C108.231 30.2533 108.487 29.9867 108.813 29.8C109.138 29.6133 109.511 29.52 109.933 29.52C110.466 29.52 110.906 29.648 111.253 29.904C111.605 30.1547 111.842 30.5147 111.965 30.984H110.981C110.901 30.7653 110.773 30.5947 110.597 30.472C110.421 30.3493 110.199 30.288 109.933 30.288C109.559 30.288 109.261 30.4213 109.037 30.688C108.818 30.9493 108.709 31.3173 108.709 31.792C108.709 32.2667 108.818 32.6373 109.037 32.904C109.261 33.1707 109.559 33.304 109.933 33.304C110.461 33.304 110.81 33.072 110.981 32.608H111.965C111.837 33.056 111.597 33.4133 111.245 33.68C110.893 33.9413 110.455 34.072 109.933 34.072C109.511 34.072 109.138 33.9787 108.813 33.792C108.487 33.6 108.231 33.3333 108.045 32.992C107.863 32.6453 107.773 32.2453 107.773 31.792ZM114.785 34.072C114.369 34.072 113.993 33.9787 113.657 33.792C113.321 33.6 113.057 33.3333 112.865 32.992C112.673 32.6453 112.577 32.2453 112.577 31.792C112.577 31.344 112.676 30.9467 112.873 30.6C113.071 30.2533 113.34 29.9867 113.681 29.8C114.023 29.6133 114.404 29.52 114.825 29.52C115.247 29.52 115.628 29.6133 115.969 29.8C116.311 29.9867 116.58 30.2533 116.777 30.6C116.975 30.9467 117.073 31.344 117.073 31.792C117.073 32.24 116.972 32.6373 116.769 32.984C116.567 33.3307 116.289 33.6 115.937 33.792C115.591 33.9787 115.207 34.072 114.785 34.072ZM114.785 33.28C115.02 33.28 115.239 33.224 115.441 33.112C115.649 33 115.817 32.832 115.945 32.608C116.073 32.384 116.137 32.112 116.137 31.792C116.137 31.472 116.076 31.2027 115.953 30.984C115.831 30.76 115.668 30.592 115.465 30.48C115.263 30.368 115.044 30.312 114.809 30.312C114.575 30.312 114.356 30.368 114.153 30.48C113.956 30.592 113.799 30.76 113.681 30.984C113.564 31.2027 113.505 31.472 113.505 31.792C113.505 32.2667 113.625 32.6347 113.865 32.896C114.111 33.152 114.417 33.28 114.785 33.28ZM123.311 29.52C123.658 29.52 123.967 29.592 124.239 29.736C124.516 29.88 124.732 30.0933 124.887 30.376C125.047 30.6587 125.127 31 125.127 31.4V34H124.223V31.536C124.223 31.1413 124.124 30.84 123.927 30.632C123.73 30.4187 123.46 30.312 123.119 30.312C122.778 30.312 122.506 30.4187 122.303 30.632C122.106 30.84 122.007 31.1413 122.007 31.536V34H121.103V31.536C121.103 31.1413 121.004 30.84 120.807 30.632C120.61 30.4187 120.34 30.312 119.999 30.312C119.658 30.312 119.386 30.4187 119.183 30.632C118.986 30.84 118.887 31.1413 118.887 31.536V34H117.975V29.592H118.887V30.096C119.036 29.9147 119.226 29.7733 119.455 29.672C119.684 29.5707 119.93 29.52 120.191 29.52C120.543 29.52 120.858 29.5947 121.135 29.744C121.412 29.8933 121.626 30.1093 121.775 30.392C121.908 30.1253 122.116 29.9147 122.399 29.76C122.682 29.6 122.986 29.52 123.311 29.52ZM130.328 31.688C130.328 31.8533 130.317 32.0027 130.296 32.136H126.928C126.954 32.488 127.085 32.7707 127.32 32.984C127.554 33.1973 127.842 33.304 128.184 33.304C128.674 33.304 129.021 33.0987 129.224 32.688H130.207C130.074 33.0933 129.832 33.4267 129.48 33.688C129.133 33.944 128.701 34.072 128.184 34.072C127.762 34.072 127.384 33.9787 127.048 33.792C126.717 33.6 126.456 33.3333 126.264 32.992C126.077 32.6453 125.984 32.2453 125.984 31.792C125.984 31.3387 126.074 30.9413 126.256 30.6C126.442 30.2533 126.701 29.9867 127.032 29.8C127.368 29.6133 127.752 29.52 128.184 29.52C128.6 29.52 128.97 29.6107 129.296 29.792C129.621 29.9733 129.874 30.2293 130.056 30.56C130.237 30.8853 130.328 31.2613 130.328 31.688ZM129.376 31.4C129.37 31.064 129.25 30.7947 129.016 30.592C128.781 30.3893 128.49 30.288 128.144 30.288C127.829 30.288 127.56 30.3893 127.336 30.592C127.112 30.7893 126.978 31.0587 126.936 31.4H129.376ZM133.081 33.304C133.609 33.304 133.958 33.072 134.129 32.608H135.113C134.996 33.0133 134.785 33.3467 134.481 33.608C134.182 33.864 133.806 34.0133 133.353 34.056V34.384C133.662 34.384 133.913 34.456 134.105 34.6C134.297 34.7493 134.393 34.9573 134.393 35.224C134.393 35.4907 134.297 35.7013 134.105 35.856C133.913 36.016 133.67 36.096 133.377 36.096H132.321V35.52H133.193C133.342 35.52 133.454 35.4987 133.529 35.456C133.604 35.4133 133.641 35.336 133.641 35.224C133.641 35.112 133.604 35.0347 133.529 34.992C133.454 34.9493 133.342 34.928 133.193 34.928H132.753V34.048C132.39 34.0053 132.07 33.8853 131.793 33.688C131.516 33.4853 131.3 33.224 131.145 32.904C130.996 32.5787 130.921 32.208 130.921 31.792C130.921 31.3387 131.012 30.9413 131.193 30.6C131.38 30.2533 131.636 29.9867 131.961 29.8C132.286 29.6133 132.66 29.52 133.081 29.52C133.614 29.52 134.054 29.648 134.401 29.904C134.753 30.1547 134.99 30.5147 135.113 30.984H134.129C134.049 30.7653 133.921 30.5947 133.745 30.472C133.569 30.3493 133.348 30.288 133.081 30.288C132.708 30.288 132.409 30.4213 132.185 30.688C131.966 30.9493 131.857 31.3173 131.857 31.792C131.857 32.2667 131.966 32.6373 132.185 32.904C132.409 33.1707 132.708 33.304 133.081 33.304ZM135.718 31.776C135.718 31.3333 135.809 30.9413 135.99 30.6C136.177 30.2587 136.427 29.9947 136.742 29.808C137.062 29.616 137.414 29.52 137.798 29.52C138.145 29.52 138.446 29.5893 138.702 29.728C138.963 29.8613 139.171 30.0293 139.326 30.232V29.592H140.246V34H139.326V33.344C139.171 33.552 138.961 33.7253 138.694 33.864C138.427 34.0027 138.123 34.072 137.782 34.072C137.403 34.072 137.057 33.976 136.742 33.784C136.427 33.5867 136.177 33.3147 135.99 32.968C135.809 32.616 135.718 32.2187 135.718 31.776ZM139.326 31.792C139.326 31.488 139.262 31.224 139.134 31C139.011 30.776 138.849 30.6053 138.646 30.488C138.443 30.3707 138.225 30.312 137.99 30.312C137.755 30.312 137.537 30.3707 137.334 30.488C137.131 30.6 136.966 30.768 136.838 30.992C136.715 31.2107 136.654 31.472 136.654 31.776C136.654 32.08 136.715 32.3467 136.838 32.576C136.966 32.8053 137.131 32.9813 137.334 33.104C137.542 33.2213 137.761 33.28 137.99 33.28C138.225 33.28 138.443 33.2213 138.646 33.104C138.849 32.9867 139.011 32.816 139.134 32.592C139.262 32.3627 139.326 32.096 139.326 31.792ZM143.218 31.776C143.218 31.3333 143.309 30.9413 143.49 30.6C143.677 30.2587 143.927 29.9947 144.242 29.808C144.562 29.616 144.914 29.52 145.298 29.52C145.645 29.52 145.946 29.5893 146.202 29.728C146.463 29.8613 146.671 30.0293 146.826 30.232V29.592H147.746V34H146.826V33.344C146.671 33.552 146.461 33.7253 146.194 33.864C145.927 34.0027 145.623 34.072 145.282 34.072C144.903 34.072 144.557 33.976 144.242 33.784C143.927 33.5867 143.677 33.3147 143.49 32.968C143.309 32.616 143.218 32.2187 143.218 31.776ZM146.826 31.792C146.826 31.488 146.762 31.224 146.634 31C146.511 30.776 146.349 30.6053 146.146 30.488C145.943 30.3707 145.725 30.312 145.49 30.312C145.255 30.312 145.037 30.3707 144.834 30.488C144.631 30.6 144.466 30.768 144.338 30.992C144.215 31.2107 144.154 31.472 144.154 31.776C144.154 32.08 144.215 32.3467 144.338 32.576C144.466 32.8053 144.631 32.9813 144.834 33.104C145.042 33.2213 145.261 33.28 145.49 33.28C145.725 33.28 145.943 33.2213 146.146 33.104C146.349 32.9867 146.511 32.816 146.634 32.592C146.762 32.3627 146.826 32.096 146.826 31.792ZM148.64 31.776C148.64 31.3333 148.73 30.9413 148.912 30.6C149.098 30.2587 149.349 29.9947 149.664 29.808C149.984 29.616 150.338 29.52 150.728 29.52C151.069 29.52 151.37 29.5893 151.632 29.728C151.898 29.8667 152.104 30.0347 152.248 30.232V29.592H153.168V36.096H152.248V33.36C152.104 33.5573 151.896 33.7253 151.624 33.864C151.352 34.0027 151.042 34.072 150.696 34.072C150.317 34.072 149.97 33.976 149.656 33.784C149.346 33.5867 149.098 33.3147 148.912 32.968C148.73 32.616 148.64 32.2187 148.64 31.776ZM152.248 31.792C152.248 31.488 152.184 31.224 152.056 31C151.933 30.776 151.77 30.6053 151.568 30.488C151.365 30.3707 151.146 30.312 150.912 30.312C150.677 30.312 150.458 30.3707 150.256 30.488C150.053 30.6 149.888 30.768 149.76 30.992C149.637 31.2107 149.576 31.472 149.576 31.776C149.576 32.08 149.637 32.3467 149.76 32.576C149.888 32.8053 150.053 32.9813 150.256 33.104C150.464 33.2213 150.682 33.28 150.912 33.28C151.146 33.28 151.365 33.2213 151.568 33.104C151.77 32.9867 151.933 32.816 152.056 32.592C152.184 32.3627 152.248 32.096 152.248 31.792ZM158.358 29.592V34H157.446V33.48C157.302 33.6613 157.112 33.8053 156.878 33.912C156.648 34.0133 156.403 34.064 156.142 34.064C155.795 34.064 155.483 33.992 155.206 33.848C154.934 33.704 154.718 33.4907 154.558 33.208C154.403 32.9253 154.326 32.584 154.326 32.184V29.592H155.23V32.048C155.23 32.4427 155.328 32.7467 155.526 32.96C155.723 33.168 155.992 33.272 156.334 33.272C156.675 33.272 156.944 33.168 157.142 32.96C157.344 32.7467 157.446 32.4427 157.446 32.048V29.592H158.358ZM160.025 29.008C159.86 29.008 159.721 28.952 159.609 28.84C159.497 28.728 159.441 28.5893 159.441 28.424C159.441 28.2587 159.497 28.12 159.609 28.008C159.721 27.896 159.86 27.84 160.025 27.84C160.185 27.84 160.321 27.896 160.433 28.008C160.545 28.12 160.601 28.2587 160.601 28.424C160.601 28.5893 160.545 28.728 160.433 28.84C160.321 28.952 160.185 29.008 160.025 29.008ZM160.473 29.592V34H159.561V29.592H160.473ZM162.038 34.056C161.873 34.056 161.734 34 161.622 33.888C161.51 33.776 161.454 33.6373 161.454 33.472C161.454 33.3067 161.51 33.168 161.622 33.056C161.734 32.944 161.873 32.888 162.038 32.888C162.198 32.888 162.334 32.944 162.446 33.056C162.558 33.168 162.614 33.3067 162.614 33.472C162.614 33.6373 162.558 33.776 162.446 33.888C162.334 34 162.198 34.056 162.038 34.056Z" fill="#989DAE"/>
</svg>
