<svg width="35" height="35" viewBox="0 0 35 35" fill="none" xmlns="http://www.w3.org/2000/svg">
<path d="M32.7777 3.88898H2.22225C0.995033 3.88898 0 4.88395 0 6.11117V28.889C0 30.1161 0.995033 31.1111 2.22225 31.1111H32.7777C34.005 31.1111 35 30.1161 35 28.8889V6.11117C35 4.88395 34.005 3.88898 32.7777 3.88898ZM32.7777 6.11117V22.2728L28.3982 18.2911C27.74 17.6928 26.7277 17.7167 26.0988 18.3461L21.6665 22.7778L12.9272 12.3389C12.2666 11.55 11.0566 11.5423 10.3861 12.3217L2.22225 21.8095V6.11117H32.7777ZM23.3334 11.9445C23.3334 10.2567 24.701 8.88892 26.3888 8.88892C28.0766 8.88892 29.4444 10.2567 29.4444 11.9445C29.4444 13.6323 28.0767 15 26.3888 15C24.7011 15.0001 23.3334 13.6323 23.3334 11.9445Z" fill="#989DAE"/>
</svg>
