<svg width="35" height="35" viewBox="0 0 35 35" fill="none" xmlns="http://www.w3.org/2000/svg">
<path d="M1.64062 2.1875C0.731445 2.1875 0 2.91895 0 3.82812V31.1719C0 32.0811 0.731445 32.8125 1.64062 32.8125H2.73438C3.64355 32.8125 4.375 32.0811 4.375 31.1719V3.82812C4.375 2.91895 3.64355 2.1875 2.73438 2.1875H1.64062ZM7.65625 2.1875C7.05469 2.1875 6.5625 2.67969 6.5625 3.28125V31.7188C6.5625 32.3203 7.05469 32.8125 7.65625 32.8125C8.25781 32.8125 8.75 32.3203 8.75 31.7188V3.28125C8.75 2.67969 8.25781 2.1875 7.65625 2.1875ZM12.5781 2.1875C11.6689 2.1875 10.9375 2.91895 10.9375 3.82812V31.1719C10.9375 32.0811 11.6689 32.8125 12.5781 32.8125H13.6719C14.5811 32.8125 15.3125 32.0811 15.3125 31.1719V3.82812C15.3125 2.91895 14.5811 2.1875 13.6719 2.1875H12.5781ZM19.1406 2.1875C18.2314 2.1875 17.5 2.91895 17.5 3.82812V31.1719C17.5 32.0811 18.2314 32.8125 19.1406 32.8125H20.2344C21.1436 32.8125 21.875 32.0811 21.875 31.1719V3.82812C21.875 2.91895 21.1436 2.1875 20.2344 2.1875H19.1406ZM30.625 3.82812V31.1719C30.625 32.0811 31.3564 32.8125 32.2656 32.8125H33.3594C34.2686 32.8125 35 32.0811 35 31.1719V3.82812C35 2.91895 34.2686 2.1875 33.3594 2.1875H32.2656C31.3564 2.1875 30.625 2.91895 30.625 3.82812ZM26.25 3.28125V31.7188C26.25 32.3203 26.7422 32.8125 27.3438 32.8125C27.9453 32.8125 28.4375 32.3203 28.4375 31.7188V3.28125C28.4375 2.67969 27.9453 2.1875 27.3438 2.1875C26.7422 2.1875 26.25 2.67969 26.25 3.28125Z" fill="#707070"/>
</svg>
