<svg width="32" height="35" viewBox="0 0 32 35" fill="none" xmlns="http://www.w3.org/2000/svg">
<g clip-path="url(#clip0_130_25)">
<path d="M18.3086 21.8947V33.8331C18.3086 34.2422 18.1461 34.6345 17.8568 34.9238C17.5676 35.213 17.1753 35.3756 16.7662 35.3756H1.54243C1.13335 35.3756 0.741027 35.213 0.451766 34.9238C0.162505 34.6345 0 34.2422 0 33.8331V1.54243C0 1.13335 0.162505 0.741027 0.451766 0.451766C0.741027 0.162505 1.13335 0 1.54243 0H16.7662C17.1753 0 17.5676 0.162505 17.8568 0.451766C18.1461 0.741027 18.3086 1.13335 18.3086 1.54243" fill="#707070"/>
<path d="M18.3086 21.8947V33.8331C18.3086 34.2422 18.1461 34.6345 17.8568 34.9238C17.5676 35.213 17.1753 35.3756 16.7662 35.3756H1.54243C1.13335 35.3756 0.741027 35.213 0.451766 34.9238C0.162505 34.6345 0 34.2422 0 33.8331V1.54243C0 1.13335 0.162505 0.741027 0.451766 0.451766C0.741027 0.162505 1.13335 0 1.54243 0H16.7662C17.1753 0 17.5676 0.162505 17.8568 0.451766C18.1461 0.741027 18.3086 1.13335 18.3086 1.54243" stroke="white" stroke-width="2" stroke-linecap="round" stroke-linejoin="round"/>
<path d="M0.539848 5.87665H9.02319" stroke="white" stroke-width="2" stroke-linecap="round" stroke-linejoin="round"/>
<path d="M0.539848 29.013H17.5065" stroke="white" stroke-width="2" stroke-linecap="round" stroke-linejoin="round"/>
<path d="M6.70956 2.7918H10.5656" stroke="white" stroke-width="2" stroke-linecap="round" stroke-linejoin="round"/>
<path d="M9.1543 33.1776C9.61431 33.1776 9.98721 32.8047 9.98721 32.3447C9.98721 31.8847 9.61431 31.5118 9.1543 31.5118C8.6943 31.5118 8.32139 31.8847 8.32139 32.3447C8.32139 32.8047 8.6943 33.1776 9.1543 33.1776Z" fill="#707070" stroke="white" stroke-width="2" stroke-linecap="round" stroke-linejoin="round"/>
<path d="M19.2341 2.08228C12.5554 2.08228 7.48077 6.53218 7.48077 12.0155C7.42711 13.2421 7.68128 14.4626 8.22009 15.5659C8.75891 16.6691 9.56525 17.6199 10.5656 18.3317C10.899 19.867 10.8219 21.4631 10.342 22.959C10.2984 23.0966 10.2943 23.2437 10.3301 23.3836C10.366 23.5234 10.4404 23.6504 10.5449 23.75C10.6493 23.8496 10.7797 23.918 10.921 23.9472C11.0624 23.9764 11.2091 23.9654 11.3445 23.9153L17.4294 21.7636C18.0476 21.8529 18.6712 21.8993 19.2958 21.9025C25.9822 21.9025 31.3498 17.4603 31.3498 11.977C31.3498 6.49362 25.9205 2.08228 19.2341 2.08228Z" fill="#707070" stroke="white" stroke-width="2" stroke-linecap="round" stroke-linejoin="round"/>
<path d="M17.3292 21.8022C15.9643 21.5323 14.6485 21.0565 13.4268 20.3909Z" fill="#707070"/>
<path d="M17.3292 21.8022C15.9643 21.5323 14.6485 21.0565 13.4268 20.3909" stroke="white" stroke-width="2" stroke-linecap="round" stroke-linejoin="round"/>
<path d="M14.2829 13.7122C15.0325 13.7122 15.6402 13.1045 15.6402 12.3548C15.6402 11.6052 15.0325 10.9975 14.2829 10.9975C13.5332 10.9975 12.9255 11.6052 12.9255 12.3548C12.9255 13.1045 13.5332 13.7122 14.2829 13.7122Z" fill="white"/>
<path d="M19.612 13.7122C20.3616 13.7122 20.9693 13.1045 20.9693 12.3548C20.9693 11.6052 20.3616 10.9975 19.612 10.9975C18.8623 10.9975 18.2546 11.6052 18.2546 12.3548C18.2546 13.1045 18.8623 13.7122 19.612 13.7122Z" fill="white"/>
<path d="M24.9487 13.7122C25.6984 13.7122 26.3061 13.1045 26.3061 12.3548C26.3061 11.6052 25.6984 10.9975 24.9487 10.9975C24.1991 10.9975 23.5914 11.6052 23.5914 12.3548C23.5914 13.1045 24.1991 13.7122 24.9487 13.7122Z" fill="white"/>
</g>
<defs>
<clipPath id="clip0_130_25">
<rect width="31.2053" height="35" fill="white"/>
</clipPath>
</defs>
</svg>
