<svg width="32" height="35" viewBox="0 0 32 35" fill="none" xmlns="http://www.w3.org/2000/svg">
<path fill-rule="evenodd" clip-rule="evenodd" d="M17.3993 30.2985H0V34.5C0 34.7761 0.223858 35 0.500001 35H16.8993C17.1754 35 17.3993 34.7761 17.3993 34.5V30.2985ZM8.53653 34.5821C9.64761 34.5821 10.5483 33.7167 10.5483 32.6493C10.5483 31.5818 9.64761 30.7164 8.53653 30.7164C7.42545 30.7164 6.52473 31.5818 6.52473 32.6493C6.52473 33.7167 7.42545 34.5821 8.53653 34.5821Z" fill="#707070"/>
<path fill-rule="evenodd" clip-rule="evenodd" d="M0 0.5C0 0.223857 0.223858 0 0.5 0H16.8993C17.1754 0 17.3993 0.223858 17.3993 0.5V1.51239C15.2227 1.99993 13.3079 2.9322 11.7927 4.1791H0V0.5ZM9.83706 6.26866H0V28.209H17.3993V22.2215L12.3367 23.9414C12.1895 23.9937 12.0299 24.0052 11.8761 23.9747C11.7224 23.9441 11.5807 23.8728 11.4671 23.7687C11.3535 23.6646 11.2726 23.5319 11.2336 23.3858C11.1946 23.2397 11.199 23.086 11.2464 22.9423C11.7683 21.3793 11.8522 19.7118 11.4897 18.1078C10.4018 17.3641 9.52493 16.3707 8.93899 15.2181C8.35305 14.0654 8.07666 12.7903 8.13501 11.5087C8.13501 9.59774 8.74905 7.80689 9.83706 6.26866ZM5.43729 2.04478C5.43729 1.49249 5.885 1.04478 6.43729 1.04478H10.962C11.5143 1.04478 11.962 1.49249 11.962 2.04478V2.13433C11.962 2.68661 11.5143 3.13433 10.962 3.13433H6.43729C5.885 3.13433 5.43729 2.68661 5.43729 2.13433V2.04478Z" fill="#707070"/>
<path fill-rule="evenodd" clip-rule="evenodd" d="M10.5544 11.6716C10.5544 6.95889 14.9458 3.13433 20.7254 3.13433C26.5116 3.13433 31.21 6.92575 31.21 11.6385C31.21 16.3513 26.565 20.1692 20.7788 20.1692C20.2383 20.1665 19.6986 20.1266 19.1637 20.0499L13.898 21.8992C13.7808 21.9422 13.6539 21.9517 13.5315 21.9266C13.4092 21.9015 13.2964 21.8427 13.206 21.7571C13.1156 21.6715 13.0512 21.5623 13.0202 21.4422C12.9891 21.322 12.9927 21.1956 13.0304 21.0773C13.4457 19.7915 13.5125 18.4198 13.224 17.1003C12.3583 16.4885 11.6605 15.6713 11.1942 14.7231C10.7279 13.7749 10.508 12.7259 10.5544 11.6716ZM15.4963 13.0597C16.247 13.0597 16.8556 12.475 16.8556 11.7537C16.8556 11.0325 16.247 10.4478 15.4963 10.4478C14.7455 10.4478 14.1369 11.0325 14.1369 11.7537C14.1369 12.475 14.7455 13.0597 15.4963 13.0597ZM20.9335 13.0597C21.6843 13.0597 22.2929 12.475 22.2929 11.7537C22.2929 11.0325 21.6843 10.4478 20.9335 10.4478C20.1828 10.4478 19.5742 11.0325 19.5742 11.7537C19.5742 12.475 20.1828 13.0597 20.9335 13.0597ZM27.7301 11.7537C27.7301 12.475 27.1216 13.0597 26.3708 13.0597C25.6201 13.0597 25.0115 12.475 25.0115 11.7537C25.0115 11.0325 25.6201 10.4478 26.3708 10.4478C27.1216 10.4478 27.7301 11.0325 27.7301 11.7537Z" fill="#707070"/>
</svg>
