<svg width="165" height="40" viewBox="0 0 165 40" fill="none" xmlns="http://www.w3.org/2000/svg">
<g clip-path="url(#clip0_130_14)">
<rect width="165" height="40" fill="white"/>
<rect width="165" height="40" fill="#1E295C"/>
<path d="M30.0539 24.3198C29.5636 22.9251 29.1762 22.6656 23.9638 7.64568C18.7515 -7.37423 14.2015 10.9459 11.9445 23.4625C13.1369 17.8391 13.3603 9.16944 9.78319 7.64568C6.20608 6.12192 3.03766 22.2809 2.01563 29.8997C1.85292 31.6047 2.99191 33.6197 3.96816 29.8997C4.45629 25.2497 7.13538 26.0214 12.7389 26.0214H56.6708H164.494H165" stroke="#FF9D14" stroke-width="2"/>
<path d="M49.3636 13.132C50.3156 13.132 51.081 13.426 51.6596 14.014C52.2476 14.5927 52.5416 15.4047 52.5416 16.45V21H50.5816V16.716C50.5816 16.1093 50.4276 15.6473 50.1196 15.33C49.8116 15.0033 49.3916 14.84 48.8596 14.84C48.3276 14.84 47.903 15.0033 47.5856 15.33C47.2776 15.6473 47.1236 16.1093 47.1236 16.716V21H45.1636V16.716C45.1636 16.1093 45.0096 15.6473 44.7016 15.33C44.3936 15.0033 43.9736 14.84 43.4416 14.84C42.9003 14.84 42.471 15.0033 42.1536 15.33C41.8456 15.6473 41.6916 16.1093 41.6916 16.716V21H39.7316V13.244H41.6916V14.182C41.9436 13.8553 42.2656 13.5987 42.6576 13.412C43.059 13.2253 43.4976 13.132 43.9736 13.132C44.5803 13.132 45.1216 13.2627 45.5976 13.524C46.0736 13.776 46.4423 14.14 46.7036 14.616C46.9556 14.168 47.3196 13.8087 47.7956 13.538C48.281 13.2673 48.8036 13.132 49.3636 13.132ZM57.8455 21.126C57.0989 21.126 56.4269 20.9627 55.8295 20.636C55.2322 20.3 54.7609 19.8287 54.4155 19.222C54.0795 18.6153 53.9115 17.9153 53.9115 17.122C53.9115 16.3287 54.0842 15.6287 54.4295 15.022C54.7842 14.4153 55.2649 13.9487 55.8715 13.622C56.4782 13.286 57.1549 13.118 57.9015 13.118C58.6482 13.118 59.3249 13.286 59.9315 13.622C60.5382 13.9487 61.0142 14.4153 61.3595 15.022C61.7142 15.6287 61.8915 16.3287 61.8915 17.122C61.8915 17.9153 61.7095 18.6153 61.3455 19.222C60.9909 19.8287 60.5055 20.3 59.8895 20.636C59.2829 20.9627 58.6015 21.126 57.8455 21.126ZM57.8455 19.418C58.2002 19.418 58.5315 19.334 58.8395 19.166C59.1569 18.9887 59.4089 18.7273 59.5955 18.382C59.7822 18.0367 59.8755 17.6167 59.8755 17.122C59.8755 16.3847 59.6795 15.82 59.2875 15.428C58.9049 15.0267 58.4335 14.826 57.8735 14.826C57.3135 14.826 56.8422 15.0267 56.4595 15.428C56.0862 15.82 55.8995 16.3847 55.8995 17.122C55.8995 17.8593 56.0815 18.4287 56.4455 18.83C56.8189 19.222 57.2855 19.418 57.8455 19.418ZM67.6273 13.132C68.5513 13.132 69.2979 13.426 69.8673 14.014C70.4366 14.5927 70.7213 15.4047 70.7213 16.45V21H68.7613V16.716C68.7613 16.1 68.6073 15.6287 68.2993 15.302C67.9913 14.966 67.5713 14.798 67.0393 14.798C66.4979 14.798 66.0686 14.966 65.7513 15.302C65.4433 15.6287 65.2893 16.1 65.2893 16.716V21H63.3293V13.244H65.2893V14.21C65.5506 13.874 65.8819 13.6127 66.2833 13.426C66.6939 13.23 67.1419 13.132 67.6273 13.132ZM74.8671 14.854V18.606C74.8671 18.8673 74.9278 19.0587 75.0491 19.18C75.1798 19.292 75.3945 19.348 75.6931 19.348H76.6031V21H75.3711C73.7191 21 72.8931 20.1973 72.8931 18.592V14.854H71.9691V13.244H72.8931V11.326H74.8671V13.244H76.6031V14.854H74.8671ZM85.2229 16.954C85.2229 17.234 85.2042 17.486 85.1669 17.71H79.4969C79.5435 18.27 79.7395 18.7087 80.0849 19.026C80.4302 19.3433 80.8549 19.502 81.3589 19.502C82.0869 19.502 82.6049 19.1893 82.9129 18.564H85.0269C84.8029 19.3107 84.3735 19.9267 83.7389 20.412C83.1042 20.888 82.3249 21.126 81.4009 21.126C80.6542 21.126 79.9822 20.9627 79.3849 20.636C78.7969 20.3 78.3349 19.8287 77.9989 19.222C77.6722 18.6153 77.5089 17.9153 77.5089 17.122C77.5089 16.3193 77.6722 15.6147 77.9989 15.008C78.3255 14.4013 78.7829 13.9347 79.3709 13.608C79.9589 13.2813 80.6355 13.118 81.4009 13.118C82.1382 13.118 82.7962 13.2767 83.3749 13.594C83.9629 13.9113 84.4155 14.364 84.7329 14.952C85.0595 15.5307 85.2229 16.198 85.2229 16.954ZM83.1929 16.394C83.1835 15.89 83.0015 15.4887 82.6469 15.19C82.2922 14.882 81.8582 14.728 81.3449 14.728C80.8595 14.728 80.4489 14.8773 80.1129 15.176C79.7862 15.4653 79.5855 15.8713 79.5109 16.394H83.1929ZM89.6215 21.126C88.9868 21.126 88.4175 21.014 87.9135 20.79C87.4095 20.5567 87.0082 20.244 86.7095 19.852C86.4202 19.46 86.2615 19.026 86.2335 18.55H88.2075C88.2448 18.8487 88.3895 19.096 88.6415 19.292C88.9028 19.488 89.2248 19.586 89.6075 19.586C89.9808 19.586 90.2702 19.5113 90.4755 19.362C90.6902 19.2127 90.7975 19.0213 90.7975 18.788C90.7975 18.536 90.6668 18.3493 90.4055 18.228C90.1535 18.0973 89.7475 17.9573 89.1875 17.808C88.6088 17.668 88.1328 17.5233 87.7595 17.374C87.3955 17.2247 87.0782 16.996 86.8075 16.688C86.5462 16.38 86.4155 15.9647 86.4155 15.442C86.4155 15.0127 86.5368 14.6207 86.7795 14.266C87.0315 13.9113 87.3862 13.6313 87.8435 13.426C88.3102 13.2207 88.8562 13.118 89.4815 13.118C90.4055 13.118 91.1428 13.3513 91.6935 13.818C92.2442 14.2753 92.5475 14.896 92.6035 15.68H90.7275C90.6995 15.372 90.5688 15.1293 90.3355 14.952C90.1115 14.7653 89.8082 14.672 89.4255 14.672C89.0708 14.672 88.7955 14.7373 88.5995 14.868C88.4128 14.9987 88.3195 15.1807 88.3195 15.414C88.3195 15.6753 88.4502 15.876 88.7115 16.016C88.9728 16.1467 89.3788 16.282 89.9295 16.422C90.4895 16.562 90.9515 16.7067 91.3155 16.856C91.6795 17.0053 91.9922 17.2387 92.2535 17.556C92.5242 17.864 92.6642 18.2747 92.6735 18.788C92.6735 19.236 92.5475 19.6373 92.2955 19.992C92.0528 20.3467 91.6982 20.6267 91.2315 20.832C90.7742 21.028 90.2375 21.126 89.6215 21.126ZM96.2424 14.378C96.4944 14.0047 96.8397 13.7013 97.2784 13.468C97.7264 13.2347 98.2351 13.118 98.8044 13.118C99.4671 13.118 100.064 13.2813 100.596 13.608C101.138 13.9347 101.562 14.4013 101.87 15.008C102.188 15.6053 102.346 16.3007 102.346 17.094C102.346 17.8873 102.188 18.592 101.87 19.208C101.562 19.8147 101.138 20.286 100.596 20.622C100.064 20.958 99.4671 21.126 98.8044 21.126C98.2257 21.126 97.7171 21.014 97.2784 20.79C96.8491 20.5567 96.5037 20.258 96.2424 19.894V21H94.2824V10.64H96.2424V14.378ZM100.344 17.094C100.344 16.6273 100.246 16.226 100.05 15.89C99.8637 15.5447 99.6117 15.2833 99.2944 15.106C98.9864 14.9287 98.6504 14.84 98.2864 14.84C97.9317 14.84 97.5957 14.9333 97.2784 15.12C96.9704 15.2973 96.7184 15.5587 96.5224 15.904C96.3357 16.2493 96.2424 16.6553 96.2424 17.122C96.2424 17.5887 96.3357 17.9947 96.5224 18.34C96.7184 18.6853 96.9704 18.9513 97.2784 19.138C97.5957 19.3153 97.9317 19.404 98.2864 19.404C98.6504 19.404 98.9864 19.3107 99.2944 19.124C99.6117 18.9373 99.8637 18.6713 100.05 18.326C100.246 17.9807 100.344 17.57 100.344 17.094ZM110.981 16.954C110.981 17.234 110.962 17.486 110.925 17.71H105.255C105.301 18.27 105.497 18.7087 105.843 19.026C106.188 19.3433 106.613 19.502 107.117 19.502C107.845 19.502 108.363 19.1893 108.671 18.564H110.785C110.561 19.3107 110.131 19.9267 109.497 20.412C108.862 20.888 108.083 21.126 107.159 21.126C106.412 21.126 105.74 20.9627 105.143 20.636C104.555 20.3 104.093 19.8287 103.757 19.222C103.43 18.6153 103.267 17.9153 103.267 17.122C103.267 16.3193 103.43 15.6147 103.757 15.008C104.083 14.4013 104.541 13.9347 105.129 13.608C105.717 13.2813 106.393 13.118 107.159 13.118C107.896 13.118 108.554 13.2767 109.133 13.594C109.721 13.9113 110.173 14.364 110.491 14.952C110.817 15.5307 110.981 16.198 110.981 16.954ZM108.951 16.394C108.941 15.89 108.759 15.4887 108.405 15.19C108.05 14.882 107.616 14.728 107.103 14.728C106.617 14.728 106.207 14.8773 105.871 15.176C105.544 15.4653 105.343 15.8713 105.269 16.394H108.951ZM114.371 10.64V21H112.411V10.64H114.371ZM119.752 21.126C119.005 21.126 118.333 20.9627 117.736 20.636C117.138 20.3 116.667 19.8287 116.322 19.222C115.986 18.6153 115.818 17.9153 115.818 17.122C115.818 16.3287 115.99 15.6287 116.336 15.022C116.69 14.4153 117.171 13.9487 117.778 13.622C118.384 13.286 119.061 13.118 119.808 13.118C120.554 13.118 121.231 13.286 121.838 13.622C122.444 13.9487 122.92 14.4153 123.266 15.022C123.62 15.6287 123.798 16.3287 123.798 17.122C123.798 17.9153 123.616 18.6153 123.252 19.222C122.897 19.8287 122.412 20.3 121.796 20.636C121.189 20.9627 120.508 21.126 119.752 21.126ZM119.752 19.418C120.106 19.418 120.438 19.334 120.746 19.166C121.063 18.9887 121.315 18.7273 121.502 18.382C121.688 18.0367 121.782 17.6167 121.782 17.122C121.782 16.3847 121.586 15.82 121.194 15.428C120.811 15.0267 120.34 14.826 119.78 14.826C119.22 14.826 118.748 15.0267 118.366 15.428C117.992 15.82 117.806 16.3847 117.806 17.122C117.806 17.8593 117.988 18.4287 118.352 18.83C118.725 19.222 119.192 19.418 119.752 19.418ZM128.204 21.126C127.569 21.126 127 21.014 126.496 20.79C125.992 20.5567 125.59 20.244 125.292 19.852C125.002 19.46 124.844 19.026 124.816 18.55H126.79C126.827 18.8487 126.972 19.096 127.224 19.292C127.485 19.488 127.807 19.586 128.19 19.586C128.563 19.586 128.852 19.5113 129.058 19.362C129.272 19.2127 129.38 19.0213 129.38 18.788C129.38 18.536 129.249 18.3493 128.988 18.228C128.736 18.0973 128.33 17.9573 127.77 17.808C127.191 17.668 126.715 17.5233 126.342 17.374C125.978 17.2247 125.66 16.996 125.39 16.688C125.128 16.38 124.998 15.9647 124.998 15.442C124.998 15.0127 125.119 14.6207 125.362 14.266C125.614 13.9113 125.968 13.6313 126.426 13.426C126.892 13.2207 127.438 13.118 128.064 13.118C128.988 13.118 129.725 13.3513 130.276 13.818C130.826 14.2753 131.13 14.896 131.186 15.68H129.31C129.282 15.372 129.151 15.1293 128.918 14.952C128.694 14.7653 128.39 14.672 128.008 14.672C127.653 14.672 127.378 14.7373 127.182 14.868C126.995 14.9987 126.902 15.1807 126.902 15.414C126.902 15.6753 127.032 15.876 127.294 16.016C127.555 16.1467 127.961 16.282 128.512 16.422C129.072 16.562 129.534 16.7067 129.898 16.856C130.262 17.0053 130.574 17.2387 130.836 17.556C131.106 17.864 131.246 18.2747 131.256 18.788C131.256 19.236 131.13 19.6373 130.878 19.992C130.635 20.3467 130.28 20.6267 129.814 20.832C129.356 21.028 128.82 21.126 128.204 21.126Z" fill="#E5E5E5"/>
<path d="M133.732 21.098C133.378 21.098 133.084 20.9907 132.85 20.776C132.626 20.552 132.514 20.2767 132.514 19.95C132.514 19.6233 132.626 19.3527 132.85 19.138C133.084 18.914 133.378 18.802 133.732 18.802C134.078 18.802 134.362 18.914 134.586 19.138C134.81 19.3527 134.922 19.6233 134.922 19.95C134.922 20.2767 134.81 20.552 134.586 20.776C134.362 20.9907 134.078 21.098 133.732 21.098ZM135.997 17.094C135.997 16.31 136.151 15.6147 136.459 15.008C136.776 14.4013 137.201 13.9347 137.733 13.608C138.274 13.2813 138.876 13.118 139.539 13.118C140.118 13.118 140.622 13.2347 141.051 13.468C141.49 13.7013 141.84 13.9953 142.101 14.35V13.244H144.075V21H142.101V19.866C141.849 20.23 141.499 20.5333 141.051 20.776C140.612 21.0093 140.104 21.126 139.525 21.126C138.872 21.126 138.274 20.958 137.733 20.622C137.201 20.286 136.776 19.8147 136.459 19.208C136.151 18.592 135.997 17.8873 135.997 17.094ZM142.101 17.122C142.101 16.646 142.008 16.24 141.821 15.904C141.634 15.5587 141.382 15.2973 141.065 15.12C140.748 14.9333 140.407 14.84 140.043 14.84C139.679 14.84 139.343 14.9287 139.035 15.106C138.727 15.2833 138.475 15.5447 138.279 15.89C138.092 16.226 137.999 16.6273 137.999 17.094C137.999 17.5607 138.092 17.9713 138.279 18.326C138.475 18.6713 138.727 18.9373 139.035 19.124C139.352 19.3107 139.688 19.404 140.043 19.404C140.407 19.404 140.748 19.3153 141.065 19.138C141.382 18.9513 141.634 18.69 141.821 18.354C142.008 18.0087 142.101 17.598 142.101 17.122ZM147.949 14.364C148.201 14.0093 148.547 13.7153 148.985 13.482C149.433 13.2393 149.942 13.118 150.511 13.118C151.174 13.118 151.771 13.2813 152.303 13.608C152.845 13.9347 153.269 14.4013 153.577 15.008C153.895 15.6053 154.053 16.3007 154.053 17.094C154.053 17.8873 153.895 18.592 153.577 19.208C153.269 19.8147 152.845 20.286 152.303 20.622C151.771 20.958 151.174 21.126 150.511 21.126C149.942 21.126 149.438 21.0093 148.999 20.776C148.57 20.5427 148.22 20.2487 147.949 19.894V24.696H145.989V13.244H147.949V14.364ZM152.051 17.094C152.051 16.6273 151.953 16.226 151.757 15.89C151.571 15.5447 151.319 15.2833 151.001 15.106C150.693 14.9287 150.357 14.84 149.993 14.84C149.639 14.84 149.303 14.9333 148.985 15.12C148.677 15.2973 148.425 15.5587 148.229 15.904C148.043 16.2493 147.949 16.6553 147.949 17.122C147.949 17.5887 148.043 17.9947 148.229 18.34C148.425 18.6853 148.677 18.9513 148.985 19.138C149.303 19.3153 149.639 19.404 149.993 19.404C150.357 19.404 150.693 19.3107 151.001 19.124C151.319 18.9373 151.571 18.6713 151.757 18.326C151.953 17.9807 152.051 17.57 152.051 17.094ZM157.438 14.364C157.69 14.0093 158.035 13.7153 158.474 13.482C158.922 13.2393 159.43 13.118 160 13.118C160.662 13.118 161.26 13.2813 161.792 13.608C162.333 13.9347 162.758 14.4013 163.066 15.008C163.383 15.6053 163.542 16.3007 163.542 17.094C163.542 17.8873 163.383 18.592 163.066 19.208C162.758 19.8147 162.333 20.286 161.792 20.622C161.26 20.958 160.662 21.126 160 21.126C159.43 21.126 158.926 21.0093 158.488 20.776C158.058 20.5427 157.708 20.2487 157.438 19.894V24.696H155.478V13.244H157.438V14.364ZM161.54 17.094C161.54 16.6273 161.442 16.226 161.246 15.89C161.059 15.5447 160.807 15.2833 160.49 15.106C160.182 14.9287 159.846 14.84 159.482 14.84C159.127 14.84 158.791 14.9333 158.474 15.12C158.166 15.2973 157.914 15.5587 157.718 15.904C157.531 16.2493 157.438 16.6553 157.438 17.122C157.438 17.5887 157.531 17.9947 157.718 18.34C157.914 18.6853 158.166 18.9513 158.474 19.138C158.791 19.3153 159.127 19.404 159.482 19.404C159.846 19.404 160.182 19.3107 160.49 19.124C160.807 18.9373 161.059 18.6713 161.246 18.326C161.442 17.9807 161.54 17.57 161.54 17.094Z" fill="#FF9D14"/>
<path d="M24.386 35.056C23.8687 35.056 23.3913 34.936 22.954 34.696C22.522 34.4507 22.178 34.112 21.922 33.68C21.6713 33.2427 21.546 32.752 21.546 32.208C21.546 31.664 21.6713 31.176 21.922 30.744C22.178 30.312 22.522 29.976 22.954 29.736C23.3913 29.4907 23.8687 29.368 24.386 29.368C24.9087 29.368 25.386 29.4907 25.818 29.736C26.2553 29.976 26.5993 30.312 26.85 30.744C27.1007 31.176 27.226 31.664 27.226 32.208C27.226 32.752 27.1007 33.2427 26.85 33.68C26.5993 34.112 26.2553 34.4507 25.818 34.696C25.386 34.936 24.9087 35.056 24.386 35.056ZM24.386 34.264C24.754 34.264 25.082 34.1813 25.37 34.016C25.658 33.8453 25.882 33.6053 26.042 33.296C26.2073 32.9813 26.29 32.6187 26.29 32.208C26.29 31.7973 26.2073 31.4373 26.042 31.128C25.882 30.8187 25.658 30.5813 25.37 30.416C25.082 30.2507 24.754 30.168 24.386 30.168C24.018 30.168 23.69 30.2507 23.402 30.416C23.114 30.5813 22.8873 30.8187 22.722 31.128C22.562 31.4373 22.482 31.7973 22.482 32.208C22.482 32.6187 22.562 32.9813 22.722 33.296C22.8873 33.6053 23.114 33.8453 23.402 34.016C23.69 34.1813 24.018 34.264 24.386 34.264ZM31.8016 35.072C31.4549 35.072 31.1429 35.0107 30.8656 34.888C30.5936 34.76 30.3776 34.5893 30.2176 34.376C30.0576 34.1573 29.9722 33.9147 29.9616 33.648H30.9056C30.9216 33.8347 31.0096 33.992 31.1696 34.12C31.3349 34.2427 31.5402 34.304 31.7856 34.304C32.0416 34.304 32.2389 34.256 32.3776 34.16C32.5216 34.0587 32.5936 33.9307 32.5936 33.776C32.5936 33.6107 32.5136 33.488 32.3536 33.408C32.1989 33.328 31.9509 33.24 31.6096 33.144C31.2789 33.0533 31.0096 32.9653 30.8016 32.88C30.5936 32.7947 30.4122 32.664 30.2576 32.488C30.1082 32.312 30.0336 32.08 30.0336 31.792C30.0336 31.5573 30.1029 31.344 30.2416 31.152C30.3802 30.9547 30.5776 30.8 30.8336 30.688C31.0949 30.576 31.3936 30.52 31.7296 30.52C32.2309 30.52 32.6336 30.648 32.9376 30.904C33.2469 31.1547 33.4122 31.4987 33.4336 31.936H32.5216C32.5056 31.7387 32.4256 31.5813 32.2816 31.464C32.1376 31.3467 31.9429 31.288 31.6976 31.288C31.4576 31.288 31.2736 31.3333 31.1456 31.424C31.0176 31.5147 30.9536 31.6347 30.9536 31.784C30.9536 31.9013 30.9962 32 31.0816 32.08C31.1669 32.16 31.2709 32.224 31.3936 32.272C31.5162 32.3147 31.6976 32.3707 31.9376 32.44C32.2576 32.5253 32.5189 32.6133 32.7216 32.704C32.9296 32.7893 33.1082 32.9173 33.2576 33.088C33.4069 33.2587 33.4842 33.4853 33.4896 33.768C33.4896 34.0187 33.4202 34.2427 33.2816 34.44C33.1429 34.6373 32.9456 34.792 32.6896 34.904C32.4389 35.016 32.1429 35.072 31.8016 35.072ZM38.515 32.688C38.515 32.8533 38.5043 33.0027 38.483 33.136H35.115C35.1417 33.488 35.2723 33.7707 35.507 33.984C35.7417 34.1973 36.0297 34.304 36.371 34.304C36.8617 34.304 37.2083 34.0987 37.411 33.688H38.395C38.2617 34.0933 38.019 34.4267 37.667 34.688C37.3203 34.944 36.8883 35.072 36.371 35.072C35.9497 35.072 35.571 34.9787 35.235 34.792C34.9043 34.6 34.643 34.3333 34.451 33.992C34.2643 33.6453 34.171 33.2453 34.171 32.792C34.171 32.3387 34.2617 31.9413 34.443 31.6C34.6297 31.2533 34.8883 30.9867 35.219 30.8C35.555 30.6133 35.939 30.52 36.371 30.52C36.787 30.52 37.1577 30.6107 37.483 30.792C37.8083 30.9733 38.0617 31.2293 38.243 31.56C38.4243 31.8853 38.515 32.2613 38.515 32.688ZM37.563 32.4C37.5577 32.064 37.4377 31.7947 37.203 31.592C36.9683 31.3893 36.6777 31.288 36.331 31.288C36.0163 31.288 35.747 31.3893 35.523 31.592C35.299 31.7893 35.1657 32.0587 35.123 32.4H37.563ZM43.4045 30.592V35H42.4925V34.48C42.3485 34.6613 42.1592 34.8053 41.9245 34.912C41.6952 35.0133 41.4498 35.064 41.1885 35.064C40.8418 35.064 40.5298 34.992 40.2525 34.848C39.9805 34.704 39.7645 34.4907 39.6045 34.208C39.4498 33.9253 39.3725 33.584 39.3725 33.184V30.592H40.2765V33.048C40.2765 33.4427 40.3752 33.7467 40.5725 33.96C40.7698 34.168 41.0392 34.272 41.3805 34.272C41.7218 34.272 41.9912 34.168 42.1885 33.96C42.3912 33.7467 42.4925 33.4427 42.4925 33.048V30.592H43.4045ZM48.9099 30.52C49.2566 30.52 49.5659 30.592 49.8379 30.736C50.1153 30.88 50.3313 31.0933 50.4859 31.376C50.6406 31.6587 50.7179 32 50.7179 32.4V35H49.8139V32.536C49.8139 32.1413 49.7153 31.84 49.5179 31.632C49.3206 31.4187 49.0513 31.312 48.7099 31.312C48.3686 31.312 48.0966 31.4187 47.8939 31.632C47.6966 31.84 47.5979 32.1413 47.5979 32.536V35H46.6859V30.592H47.5979V31.096C47.7473 30.9147 47.9366 30.7733 48.1659 30.672C48.4006 30.5707 48.6486 30.52 48.9099 30.52ZM55.9213 32.688C55.9213 32.8533 55.9106 33.0027 55.8893 33.136H52.5213C52.5479 33.488 52.6786 33.7707 52.9133 33.984C53.1479 34.1973 53.4359 34.304 53.7773 34.304C54.2679 34.304 54.6146 34.0987 54.8173 33.688H55.8012C55.6679 34.0933 55.4253 34.4267 55.0733 34.688C54.7266 34.944 54.2946 35.072 53.7773 35.072C53.3559 35.072 52.9773 34.9787 52.6413 34.792C52.3106 34.6 52.0493 34.3333 51.8573 33.992C51.6706 33.6453 51.5773 33.2453 51.5773 32.792C51.5773 32.3387 51.6679 31.9413 51.8493 31.6C52.0359 31.2533 52.2946 30.9867 52.6253 30.8C52.9613 30.6133 53.3453 30.52 53.7773 30.52C54.1933 30.52 54.5639 30.6107 54.8893 30.792C55.2146 30.9733 55.4679 31.2293 55.6493 31.56C55.8306 31.8853 55.9213 32.2613 55.9213 32.688ZM54.9693 32.4C54.9639 32.064 54.8439 31.7947 54.6093 31.592C54.3746 31.3893 54.0839 31.288 53.7373 31.288C53.4226 31.288 53.1533 31.3893 52.9293 31.592C52.7053 31.7893 52.5719 32.0587 52.5293 32.4H54.9693ZM58.5948 30.52C58.9361 30.52 59.2374 30.5893 59.4988 30.728C59.7654 30.8613 59.9734 31.0293 60.1228 31.232V30.592H61.0428V35.072C61.0428 35.4773 60.9574 35.8373 60.7868 36.152C60.6161 36.472 60.3681 36.7227 60.0428 36.904C59.7228 37.0853 59.3388 37.176 58.8908 37.176C58.2934 37.176 57.7974 37.0347 57.4028 36.752C57.0081 36.4747 56.7841 36.096 56.7308 35.616H57.6348C57.7041 35.8453 57.8508 36.0293 58.0748 36.168C58.3041 36.312 58.5761 36.384 58.8908 36.384C59.2588 36.384 59.5548 36.272 59.7788 36.048C60.0081 35.824 60.1228 35.4987 60.1228 35.072V34.336C59.9681 34.544 59.7574 34.72 59.4908 34.864C59.2294 35.0027 58.9308 35.072 58.5948 35.072C58.2108 35.072 57.8588 34.976 57.5388 34.784C57.2241 34.5867 56.9734 34.3147 56.7868 33.968C56.6054 33.616 56.5148 33.2187 56.5148 32.776C56.5148 32.3333 56.6054 31.9413 56.7868 31.6C56.9734 31.2587 57.2241 30.9947 57.5388 30.808C57.8588 30.616 58.2108 30.52 58.5948 30.52ZM60.1228 32.792C60.1228 32.488 60.0588 32.224 59.9308 32C59.8081 31.776 59.6454 31.6053 59.4428 31.488C59.2401 31.3707 59.0214 31.312 58.7868 31.312C58.5521 31.312 58.3334 31.3707 58.1308 31.488C57.9281 31.6 57.7628 31.768 57.6348 31.992C57.5121 32.2107 57.4508 32.472 57.4508 32.776C57.4508 33.08 57.5121 33.3467 57.6348 33.576C57.7628 33.8053 57.9281 33.9813 58.1308 34.104C58.3388 34.2213 58.5574 34.28 58.7868 34.28C59.0214 34.28 59.2401 34.2213 59.4428 34.104C59.6454 33.9867 59.8081 33.816 59.9308 33.592C60.0588 33.3627 60.1228 33.096 60.1228 32.792ZM64.1526 35.072C63.7366 35.072 63.3606 34.9787 63.0246 34.792C62.6886 34.6 62.4246 34.3333 62.2326 33.992C62.0406 33.6453 61.9446 33.2453 61.9446 32.792C61.9446 32.344 62.0433 31.9467 62.2406 31.6C62.438 31.2533 62.7073 30.9867 63.0486 30.8C63.39 30.6133 63.7713 30.52 64.1926 30.52C64.614 30.52 64.9953 30.6133 65.3366 30.8C65.678 30.9867 65.9473 31.2533 66.1446 31.6C66.342 31.9467 66.4406 32.344 66.4406 32.792C66.4406 33.24 66.3393 33.6373 66.1366 33.984C65.934 34.3307 65.6566 34.6 65.3046 34.792C64.958 34.9787 64.574 35.072 64.1526 35.072ZM64.1526 34.28C64.3873 34.28 64.606 34.224 64.8086 34.112C65.0166 34 65.1846 33.832 65.3126 33.608C65.4406 33.384 65.5046 33.112 65.5046 32.792C65.5046 32.472 65.4433 32.2027 65.3206 31.984C65.198 31.76 65.0353 31.592 64.8326 31.48C64.63 31.368 64.4113 31.312 64.1766 31.312C63.942 31.312 63.7233 31.368 63.5206 31.48C63.3233 31.592 63.166 31.76 63.0486 31.984C62.9313 32.2027 62.8726 32.472 62.8726 32.792C62.8726 33.2667 62.9926 33.6347 63.2326 33.896C63.478 34.152 63.7846 34.28 64.1526 34.28ZM67.0382 32.792C67.0382 32.3387 67.1289 31.9413 67.3102 31.6C67.4969 31.2533 67.7529 30.9867 68.0782 30.8C68.4035 30.6133 68.7769 30.52 69.1982 30.52C69.7315 30.52 70.1715 30.648 70.5182 30.904C70.8702 31.1547 71.1075 31.5147 71.2302 31.984H70.2462C70.1662 31.7653 70.0382 31.5947 69.8622 31.472C69.6862 31.3493 69.4649 31.288 69.1982 31.288C68.8249 31.288 68.5262 31.4213 68.3022 31.688C68.0835 31.9493 67.9742 32.3173 67.9742 32.792C67.9742 33.2667 68.0835 33.6373 68.3022 33.904C68.5262 34.1707 68.8249 34.304 69.1982 34.304C69.7262 34.304 70.0755 34.072 70.2462 33.608H71.2302C71.1022 34.056 70.8622 34.4133 70.5102 34.68C70.1582 34.9413 69.7209 35.072 69.1982 35.072C68.7769 35.072 68.4035 34.9787 68.0782 34.792C67.7529 34.6 67.4969 34.3333 67.3102 33.992C67.1289 33.6453 67.0382 33.2453 67.0382 32.792ZM73.0511 30.592V35H72.1391V30.592H73.0511ZM73.4191 29.408L71.6511 30.28V29.608L73.4191 28.632V29.408ZM76.1604 35.072C75.7444 35.072 75.3684 34.9787 75.0324 34.792C74.6964 34.6 74.4324 34.3333 74.2404 33.992C74.0484 33.6453 73.9524 33.2453 73.9524 32.792C73.9524 32.344 74.0511 31.9467 74.2484 31.6C74.4458 31.2533 74.7151 30.9867 75.0564 30.8C75.3978 30.6133 75.7791 30.52 76.2004 30.52C76.6218 30.52 77.0031 30.6133 77.3444 30.8C77.6858 30.9867 77.9551 31.2533 78.1524 31.6C78.3498 31.9467 78.4484 32.344 78.4484 32.792C78.4484 33.24 78.3471 33.6373 78.1444 33.984C77.9418 34.3307 77.6644 34.6 77.3124 34.792C76.9658 34.9787 76.5818 35.072 76.1604 35.072ZM76.1604 34.28C76.3951 34.28 76.6138 34.224 76.8164 34.112C77.0244 34 77.1924 33.832 77.3204 33.608C77.4484 33.384 77.5124 33.112 77.5124 32.792C77.5124 32.472 77.4511 32.2027 77.3284 31.984C77.2058 31.76 77.0431 31.592 76.8404 31.48C76.6378 31.368 76.4191 31.312 76.1844 31.312C75.9498 31.312 75.7311 31.368 75.5284 31.48C75.3311 31.592 75.1738 31.76 75.0564 31.984C74.9391 32.2027 74.8804 32.472 74.8804 32.792C74.8804 33.2667 75.0004 33.6347 75.2404 33.896C75.4858 34.152 75.7924 34.28 76.1604 34.28ZM81.1241 32.776C81.1241 32.3333 81.2148 31.9413 81.3961 31.6C81.5828 31.2587 81.8335 30.9947 82.1481 30.808C82.4681 30.616 82.8228 30.52 83.2121 30.52C83.5001 30.52 83.7828 30.584 84.0601 30.712C84.3428 30.8347 84.5668 31 84.7321 31.208V29.08H85.6521V35H84.7321V34.336C84.5828 34.5493 84.3748 34.7253 84.1081 34.864C83.8468 35.0027 83.5455 35.072 83.2041 35.072C82.8201 35.072 82.4681 34.976 82.1481 34.784C81.8335 34.5867 81.5828 34.3147 81.3961 33.968C81.2148 33.616 81.1241 33.2187 81.1241 32.776ZM84.7321 32.792C84.7321 32.488 84.6681 32.224 84.5401 32C84.4175 31.776 84.2548 31.6053 84.0521 31.488C83.8495 31.3707 83.6308 31.312 83.3961 31.312C83.1615 31.312 82.9428 31.3707 82.7401 31.488C82.5375 31.6 82.3721 31.768 82.2441 31.992C82.1215 32.2107 82.0601 32.472 82.0601 32.776C82.0601 33.08 82.1215 33.3467 82.2441 33.576C82.3721 33.8053 82.5375 33.9813 82.7401 34.104C82.9481 34.2213 83.1668 34.28 83.3961 34.28C83.6308 34.28 83.8495 34.2213 84.0521 34.104C84.2548 33.9867 84.4175 33.816 84.5401 33.592C84.6681 33.3627 84.7321 33.096 84.7321 32.792ZM87.314 30.008C87.1487 30.008 87.01 29.952 86.898 29.84C86.786 29.728 86.73 29.5893 86.73 29.424C86.73 29.2587 86.786 29.12 86.898 29.008C87.01 28.896 87.1487 28.84 87.314 28.84C87.474 28.84 87.61 28.896 87.722 29.008C87.834 29.12 87.89 29.2587 87.89 29.424C87.89 29.5893 87.834 29.728 87.722 29.84C87.61 29.952 87.474 30.008 87.314 30.008ZM87.762 30.592V35H86.85V30.592H87.762ZM90.7354 30.52C91.0767 30.52 91.378 30.5893 91.6394 30.728C91.906 30.8613 92.114 31.0293 92.2634 31.232V30.592H93.1834V35.072C93.1834 35.4773 93.098 35.8373 92.9274 36.152C92.7567 36.472 92.5087 36.7227 92.1834 36.904C91.8634 37.0853 91.4794 37.176 91.0314 37.176C90.434 37.176 89.938 37.0347 89.5434 36.752C89.1487 36.4747 88.9247 36.096 88.8714 35.616H89.7754C89.8447 35.8453 89.9914 36.0293 90.2154 36.168C90.4447 36.312 90.7167 36.384 91.0314 36.384C91.3994 36.384 91.6954 36.272 91.9194 36.048C92.1487 35.824 92.2634 35.4987 92.2634 35.072V34.336C92.1087 34.544 91.898 34.72 91.6314 34.864C91.37 35.0027 91.0714 35.072 90.7354 35.072C90.3514 35.072 89.9994 34.976 89.6794 34.784C89.3647 34.5867 89.114 34.3147 88.9274 33.968C88.746 33.616 88.6554 33.2187 88.6554 32.776C88.6554 32.3333 88.746 31.9413 88.9274 31.6C89.114 31.2587 89.3647 30.9947 89.6794 30.808C89.9994 30.616 90.3514 30.52 90.7354 30.52ZM92.2634 32.792C92.2634 32.488 92.1994 32.224 92.0714 32C91.9487 31.776 91.786 31.6053 91.5834 31.488C91.3807 31.3707 91.162 31.312 90.9274 31.312C90.6927 31.312 90.474 31.3707 90.2714 31.488C90.0687 31.6 89.9034 31.768 89.7754 31.992C89.6527 32.2107 89.5914 32.472 89.5914 32.776C89.5914 33.08 89.6527 33.3467 89.7754 33.576C89.9034 33.8053 90.0687 33.9813 90.2714 34.104C90.4794 34.2213 90.698 34.28 90.9274 34.28C91.162 34.28 91.3807 34.2213 91.5834 34.104C91.786 33.9867 91.9487 33.816 92.0714 33.592C92.1994 33.3627 92.2634 33.096 92.2634 32.792ZM94.8453 30.008C94.6799 30.008 94.5413 29.952 94.4293 29.84C94.3173 29.728 94.2613 29.5893 94.2613 29.424C94.2613 29.2587 94.3173 29.12 94.4293 29.008C94.5413 28.896 94.6799 28.84 94.8453 28.84C95.0053 28.84 95.1413 28.896 95.2533 29.008C95.3653 29.12 95.4213 29.2587 95.4213 29.424C95.4213 29.5893 95.3653 29.728 95.2533 29.84C95.1413 29.952 95.0053 30.008 94.8453 30.008ZM95.2933 30.592V35H94.3813V30.592H95.2933ZM97.5546 31.336V33.776C97.5546 33.9413 97.592 34.0613 97.6666 34.136C97.7466 34.2053 97.88 34.24 98.0666 34.24H98.6266V35H97.9066C97.496 35 97.1813 34.904 96.9626 34.712C96.744 34.52 96.6346 34.208 96.6346 33.776V31.336H96.1146V30.592H96.6346V29.496H97.5546V30.592H98.6266V31.336H97.5546ZM99.1632 32.776C99.1632 32.3333 99.2539 31.9413 99.4352 31.6C99.6219 31.2587 99.8725 30.9947 100.187 30.808C100.507 30.616 100.859 30.52 101.243 30.52C101.59 30.52 101.891 30.5893 102.147 30.728C102.409 30.8613 102.617 31.0293 102.771 31.232V30.592H103.691V35H102.771V34.344C102.617 34.552 102.406 34.7253 102.139 34.864C101.873 35.0027 101.569 35.072 101.227 35.072C100.849 35.072 100.502 34.976 100.187 34.784C99.8725 34.5867 99.6219 34.3147 99.4352 33.968C99.2539 33.616 99.1632 33.2187 99.1632 32.776ZM102.771 32.792C102.771 32.488 102.707 32.224 102.579 32C102.457 31.776 102.294 31.6053 102.091 31.488C101.889 31.3707 101.67 31.312 101.435 31.312C101.201 31.312 100.982 31.3707 100.779 31.488C100.577 31.6 100.411 31.768 100.283 31.992C100.161 32.2107 100.099 32.472 100.099 32.776C100.099 33.08 100.161 33.3467 100.283 33.576C100.411 33.8053 100.577 33.9813 100.779 34.104C100.987 34.2213 101.206 34.28 101.435 34.28C101.67 34.28 101.889 34.2213 102.091 34.104C102.294 33.9867 102.457 33.816 102.579 33.592C102.707 33.3627 102.771 33.096 102.771 32.792ZM105.801 29.08V35H104.889V29.08H105.801ZM108.773 32.792C108.773 32.3387 108.863 31.9413 109.045 31.6C109.231 31.2533 109.487 30.9867 109.813 30.8C110.138 30.6133 110.511 30.52 110.933 30.52C111.466 30.52 111.906 30.648 112.253 30.904C112.605 31.1547 112.842 31.5147 112.965 31.984H111.981C111.901 31.7653 111.773 31.5947 111.597 31.472C111.421 31.3493 111.199 31.288 110.933 31.288C110.559 31.288 110.261 31.4213 110.037 31.688C109.818 31.9493 109.709 32.3173 109.709 32.792C109.709 33.2667 109.818 33.6373 110.037 33.904C110.261 34.1707 110.559 34.304 110.933 34.304C111.461 34.304 111.81 34.072 111.981 33.608H112.965C112.837 34.056 112.597 34.4133 112.245 34.68C111.893 34.9413 111.455 35.072 110.933 35.072C110.511 35.072 110.138 34.9787 109.813 34.792C109.487 34.6 109.231 34.3333 109.045 33.992C108.863 33.6453 108.773 33.2453 108.773 32.792ZM115.785 35.072C115.369 35.072 114.993 34.9787 114.657 34.792C114.321 34.6 114.057 34.3333 113.865 33.992C113.673 33.6453 113.577 33.2453 113.577 32.792C113.577 32.344 113.676 31.9467 113.873 31.6C114.071 31.2533 114.34 30.9867 114.681 30.8C115.023 30.6133 115.404 30.52 115.825 30.52C116.247 30.52 116.628 30.6133 116.969 30.8C117.311 30.9867 117.58 31.2533 117.777 31.6C117.975 31.9467 118.073 32.344 118.073 32.792C118.073 33.24 117.972 33.6373 117.769 33.984C117.567 34.3307 117.289 34.6 116.937 34.792C116.591 34.9787 116.207 35.072 115.785 35.072ZM115.785 34.28C116.02 34.28 116.239 34.224 116.441 34.112C116.649 34 116.817 33.832 116.945 33.608C117.073 33.384 117.137 33.112 117.137 32.792C117.137 32.472 117.076 32.2027 116.953 31.984C116.831 31.76 116.668 31.592 116.465 31.48C116.263 31.368 116.044 31.312 115.809 31.312C115.575 31.312 115.356 31.368 115.153 31.48C114.956 31.592 114.799 31.76 114.681 31.984C114.564 32.2027 114.505 32.472 114.505 32.792C114.505 33.2667 114.625 33.6347 114.865 33.896C115.111 34.152 115.417 34.28 115.785 34.28ZM124.311 30.52C124.658 30.52 124.967 30.592 125.239 30.736C125.516 30.88 125.732 31.0933 125.887 31.376C126.047 31.6587 126.127 32 126.127 32.4V35H125.223V32.536C125.223 32.1413 125.124 31.84 124.927 31.632C124.73 31.4187 124.46 31.312 124.119 31.312C123.778 31.312 123.506 31.4187 123.303 31.632C123.106 31.84 123.007 32.1413 123.007 32.536V35H122.103V32.536C122.103 32.1413 122.004 31.84 121.807 31.632C121.61 31.4187 121.34 31.312 120.999 31.312C120.658 31.312 120.386 31.4187 120.183 31.632C119.986 31.84 119.887 32.1413 119.887 32.536V35H118.975V30.592H119.887V31.096C120.036 30.9147 120.226 30.7733 120.455 30.672C120.684 30.5707 120.93 30.52 121.191 30.52C121.543 30.52 121.858 30.5947 122.135 30.744C122.412 30.8933 122.626 31.1093 122.775 31.392C122.908 31.1253 123.116 30.9147 123.399 30.76C123.682 30.6 123.986 30.52 124.311 30.52ZM131.328 32.688C131.328 32.8533 131.317 33.0027 131.296 33.136H127.928C127.954 33.488 128.085 33.7707 128.32 33.984C128.554 34.1973 128.842 34.304 129.184 34.304C129.674 34.304 130.021 34.0987 130.224 33.688H131.207C131.074 34.0933 130.832 34.4267 130.48 34.688C130.133 34.944 129.701 35.072 129.184 35.072C128.762 35.072 128.384 34.9787 128.048 34.792C127.717 34.6 127.456 34.3333 127.264 33.992C127.077 33.6453 126.984 33.2453 126.984 32.792C126.984 32.3387 127.074 31.9413 127.256 31.6C127.442 31.2533 127.701 30.9867 128.032 30.8C128.368 30.6133 128.752 30.52 129.184 30.52C129.6 30.52 129.97 30.6107 130.296 30.792C130.621 30.9733 130.874 31.2293 131.056 31.56C131.237 31.8853 131.328 32.2613 131.328 32.688ZM130.376 32.4C130.37 32.064 130.25 31.7947 130.016 31.592C129.781 31.3893 129.49 31.288 129.144 31.288C128.829 31.288 128.56 31.3893 128.336 31.592C128.112 31.7893 127.978 32.0587 127.936 32.4H130.376ZM134.081 34.304C134.609 34.304 134.958 34.072 135.129 33.608H136.113C135.996 34.0133 135.785 34.3467 135.481 34.608C135.182 34.864 134.806 35.0133 134.353 35.056V35.384C134.662 35.384 134.913 35.456 135.105 35.6C135.297 35.7493 135.393 35.9573 135.393 36.224C135.393 36.4907 135.297 36.7013 135.105 36.856C134.913 37.016 134.67 37.096 134.377 37.096H133.321V36.52H134.193C134.342 36.52 134.454 36.4987 134.529 36.456C134.604 36.4133 134.641 36.336 134.641 36.224C134.641 36.112 134.604 36.0347 134.529 35.992C134.454 35.9493 134.342 35.928 134.193 35.928H133.753V35.048C133.39 35.0053 133.07 34.8853 132.793 34.688C132.516 34.4853 132.3 34.224 132.145 33.904C131.996 33.5787 131.921 33.208 131.921 32.792C131.921 32.3387 132.012 31.9413 132.193 31.6C132.38 31.2533 132.636 30.9867 132.961 30.8C133.286 30.6133 133.66 30.52 134.081 30.52C134.614 30.52 135.054 30.648 135.401 30.904C135.753 31.1547 135.99 31.5147 136.113 31.984H135.129C135.049 31.7653 134.921 31.5947 134.745 31.472C134.569 31.3493 134.348 31.288 134.081 31.288C133.708 31.288 133.409 31.4213 133.185 31.688C132.966 31.9493 132.857 32.3173 132.857 32.792C132.857 33.2667 132.966 33.6373 133.185 33.904C133.409 34.1707 133.708 34.304 134.081 34.304ZM136.718 32.776C136.718 32.3333 136.809 31.9413 136.99 31.6C137.177 31.2587 137.427 30.9947 137.742 30.808C138.062 30.616 138.414 30.52 138.798 30.52C139.145 30.52 139.446 30.5893 139.702 30.728C139.963 30.8613 140.171 31.0293 140.326 31.232V30.592H141.246V35H140.326V34.344C140.171 34.552 139.961 34.7253 139.694 34.864C139.427 35.0027 139.123 35.072 138.782 35.072C138.403 35.072 138.057 34.976 137.742 34.784C137.427 34.5867 137.177 34.3147 136.99 33.968C136.809 33.616 136.718 33.2187 136.718 32.776ZM140.326 32.792C140.326 32.488 140.262 32.224 140.134 32C140.011 31.776 139.849 31.6053 139.646 31.488C139.443 31.3707 139.225 31.312 138.99 31.312C138.755 31.312 138.537 31.3707 138.334 31.488C138.131 31.6 137.966 31.768 137.838 31.992C137.715 32.2107 137.654 32.472 137.654 32.776C137.654 33.08 137.715 33.3467 137.838 33.576C137.966 33.8053 138.131 33.9813 138.334 34.104C138.542 34.2213 138.761 34.28 138.99 34.28C139.225 34.28 139.443 34.2213 139.646 34.104C139.849 33.9867 140.011 33.816 140.134 33.592C140.262 33.3627 140.326 33.096 140.326 32.792ZM144.218 32.776C144.218 32.3333 144.309 31.9413 144.49 31.6C144.677 31.2587 144.927 30.9947 145.242 30.808C145.562 30.616 145.914 30.52 146.298 30.52C146.645 30.52 146.946 30.5893 147.202 30.728C147.463 30.8613 147.671 31.0293 147.826 31.232V30.592H148.746V35H147.826V34.344C147.671 34.552 147.461 34.7253 147.194 34.864C146.927 35.0027 146.623 35.072 146.282 35.072C145.903 35.072 145.557 34.976 145.242 34.784C144.927 34.5867 144.677 34.3147 144.49 33.968C144.309 33.616 144.218 33.2187 144.218 32.776ZM147.826 32.792C147.826 32.488 147.762 32.224 147.634 32C147.511 31.776 147.349 31.6053 147.146 31.488C146.943 31.3707 146.725 31.312 146.49 31.312C146.255 31.312 146.037 31.3707 145.834 31.488C145.631 31.6 145.466 31.768 145.338 31.992C145.215 32.2107 145.154 32.472 145.154 32.776C145.154 33.08 145.215 33.3467 145.338 33.576C145.466 33.8053 145.631 33.9813 145.834 34.104C146.042 34.2213 146.261 34.28 146.49 34.28C146.725 34.28 146.943 34.2213 147.146 34.104C147.349 33.9867 147.511 33.816 147.634 33.592C147.762 33.3627 147.826 33.096 147.826 32.792ZM149.64 32.776C149.64 32.3333 149.73 31.9413 149.912 31.6C150.098 31.2587 150.349 30.9947 150.664 30.808C150.984 30.616 151.338 30.52 151.728 30.52C152.069 30.52 152.37 30.5893 152.632 30.728C152.898 30.8667 153.104 31.0347 153.248 31.232V30.592H154.168V37.096H153.248V34.36C153.104 34.5573 152.896 34.7253 152.624 34.864C152.352 35.0027 152.042 35.072 151.696 35.072C151.317 35.072 150.97 34.976 150.656 34.784C150.346 34.5867 150.098 34.3147 149.912 33.968C149.73 33.616 149.64 33.2187 149.64 32.776ZM153.248 32.792C153.248 32.488 153.184 32.224 153.056 32C152.933 31.776 152.77 31.6053 152.568 31.488C152.365 31.3707 152.146 31.312 151.912 31.312C151.677 31.312 151.458 31.3707 151.256 31.488C151.053 31.6 150.888 31.768 150.76 31.992C150.637 32.2107 150.576 32.472 150.576 32.776C150.576 33.08 150.637 33.3467 150.76 33.576C150.888 33.8053 151.053 33.9813 151.256 34.104C151.464 34.2213 151.682 34.28 151.912 34.28C152.146 34.28 152.365 34.2213 152.568 34.104C152.77 33.9867 152.933 33.816 153.056 33.592C153.184 33.3627 153.248 33.096 153.248 32.792ZM159.358 30.592V35H158.446V34.48C158.302 34.6613 158.112 34.8053 157.878 34.912C157.648 35.0133 157.403 35.064 157.142 35.064C156.795 35.064 156.483 34.992 156.206 34.848C155.934 34.704 155.718 34.4907 155.558 34.208C155.403 33.9253 155.326 33.584 155.326 33.184V30.592H156.23V33.048C156.23 33.4427 156.328 33.7467 156.526 33.96C156.723 34.168 156.992 34.272 157.334 34.272C157.675 34.272 157.944 34.168 158.142 33.96C158.344 33.7467 158.446 33.4427 158.446 33.048V30.592H159.358ZM161.025 30.008C160.86 30.008 160.721 29.952 160.609 29.84C160.497 29.728 160.441 29.5893 160.441 29.424C160.441 29.2587 160.497 29.12 160.609 29.008C160.721 28.896 160.86 28.84 161.025 28.84C161.185 28.84 161.321 28.896 161.433 29.008C161.545 29.12 161.601 29.2587 161.601 29.424C161.601 29.5893 161.545 29.728 161.433 29.84C161.321 29.952 161.185 30.008 161.025 30.008ZM161.473 30.592V35H160.561V30.592H161.473ZM163.038 35.056C162.873 35.056 162.734 35 162.622 34.888C162.51 34.776 162.454 34.6373 162.454 34.472C162.454 34.3067 162.51 34.168 162.622 34.056C162.734 33.944 162.873 33.888 163.038 33.888C163.198 33.888 163.334 33.944 163.446 34.056C163.558 34.168 163.614 34.3067 163.614 34.472C163.614 34.6373 163.558 34.776 163.446 34.888C163.334 35 163.198 35.056 163.038 35.056Z" fill="#989DAE"/>
</g>
<defs>
<clipPath id="clip0_130_14">
<rect width="165" height="40" fill="white"/>
</clipPath>
</defs>
</svg>
